<svg xmlns="http://www.w3.org/2000/svg" width="100" height="100" viewBox="0 0 176 138" style="clip-rule:evenodd;fill-rule:evenodd;stroke-linejoin:round;stroke-miterlimit:1.41421;version:1.1"><style>.a{fill:#3d7454;}</style><g><g><g><g><g><path d="M167.474 129.989l-7.695-7.742 0 0 -7.146-7.189 0.119 21.869 21.868 0.251 -7.146-7.189 0 0Z" class="a"/><path d="M159.779 122.247l0 0 7.695 7.742 0 0 7.146 7.189 -21.868-0.251 -0.119-21.869 7.146 7.189Zm-6.032 13.691l18.441 0.212 -5.423-5.456 -7.695-7.742 -5.423-5.456 0.1 18.442Z" class="a"/><path d="M172.099 105.257c5.964 6.148 4.372 17.482-4.176 25.264l-7.548-7.548 0.936-1.024c2.776-0.794 6.353-3.568 8.679-6.891 2.192-3.132 3.251-6.746 2.109-9.801Z" class="a"/><path d="M172.169 105.329l0.069 0.073 0.068 0.073 0.067 0.074 0.067 0.074 0.066 0.075 0.066 0.075 0.064 0.075 0.064 0.076 0.064 0.077 0.062 0.077 0.062 0.077 0.061 0.078 0.061 0.078 0.06 0.078 0.059 0.079 0.058 0.08 0.058 0.08 0.057 0.08 0.057 0.081 0.056 0.081 0.055 0.081 0.054 0.082 0.054 0.083 0.053 0.082 0.052 0.084 0.052 0.083 0.051 0.084 0.05 0.084 0.049 0.085 0.049 0.085 0.049 0.086 0.047 0.085 0.047 0.087 0.046 0.086 0.045 0.087 0.045 0.087 0.044 0.088 0.044 0.088 0.043 0.088 0.042 0.089 0.041 0.089 0.041 0.09 0.04 0.089 0.039 0.09 0.039 0.091 0.037 0.091 0.038 0.091 0.036 0.091 0.036 0.092 0.07 0.184 0.067 0.186 0.064 0.187 0.062 0.188 0.059 0.189 0.056 0.19 0.054 0.192 0.05 0.192 0.048 0.194 0.046 0.195 0.042 0.196 0.04 0.196 0.037 0.198 0.035 0.199 0.032 0.199 0.029 0.201 0.026 0.201 0.024 0.203 0.021 0.203 0.018 0.203 0.016 0.205 0.013 0.205 0.01 0.207 0.008 0.206 0.005 0.208 0.002 0.208 0 0.209 -0.004 0.209 -0.005 0.21 -0.009 0.21 -0.011 0.211 -0.014 0.212 -0.016 0.212 -0.02 0.212 -0.021 0.213 -0.025 0.213 -0.027 0.214 -0.03 0.214 -0.032 0.214 -0.035 0.215 -0.038 0.215 -0.041 0.215 -0.043 0.215 -0.045 0.216 -0.049 0.215 -0.051 0.216 -0.054 0.216 -0.056 0.216 -0.059 0.216 -0.062 0.217 -0.064 0.216 -0.067 0.216 -0.069 0.216 -0.072 0.216 -0.075 0.217 -0.077 0.216 -0.081 0.215 -0.082 0.216 -0.085 0.216 -0.088 0.215 -0.091 0.215 -0.093 0.215 -0.096 0.214 -0.098 0.215 -0.101 0.214 -0.104 0.213 -0.106 0.213 -0.109 0.213 -0.111 0.213 -0.114 0.212 -0.117 0.211 -0.119 0.211 -0.122 0.21 -0.125 0.21 -0.127 0.21 -0.129 0.208 -0.133 0.208 -0.134 0.208 -0.138 0.207 -0.14 0.206 -0.142 0.205 -0.146 0.205 -0.147 0.203 -0.151 0.203 -0.153 0.203 -0.155 0.201 -0.158 0.2 -0.161 0.2 -0.163 0.199 -0.166 0.197 -0.168 0.197 -0.171 0.196 -0.174 0.194 -0.176 0.194 -0.178 0.192 -0.182 0.192 -0.183 0.19 -0.187 0.189 -0.188 0.188 -0.192 0.187 -0.194 0.186 -0.196 0.184 -0.199 0.183 -7.548-7.548 0.936-1.024 0.131-0.039 0.132-0.041 0.133-0.045 0.133-0.047 0.135-0.05 0.136-0.052 0.137-0.056 0.138-0.058 0.138-0.06 0.139-0.064 0.14-0.066 0.14-0.068 0.142-0.071 0.141-0.073 0.142-0.076 0.143-0.078 0.143-0.081 0.144-0.083 0.143-0.085 0.144-0.088 0.145-0.089 0.144-0.092 0.145-0.095 0.145-0.096 0.144-0.098 0.145-0.101 0.145-0.103 0.145-0.104 0.144-0.107 0.144-0.108 0.144-0.111 0.144-0.112 0.144-0.114 0.143-0.116 0.142-0.118 0.142-0.12 0.142-0.121 0.141-0.123 0.141-0.124 0.14-0.127 0.139-0.127 0.138-0.13 0.138-0.131 0.136-0.132 0.136-0.134 0.135-0.135 0.134-0.137 0.133-0.138 0.132-0.139 0.13-0.141 0.13-0.142 0.128-0.143 0.127-0.144 0.126-0.146 0.124-0.147 0.123-0.147 0.121-0.149 0.12-0.15 0.119-0.151 0.116-0.152 0.115-0.152 0.114-0.154 0.112-0.154 0.11-0.156 0.101-0.147 0.101-0.148 0.098-0.148 0.097-0.149 0.095-0.15 0.093-0.151 0.092-0.15 0.089-0.152 0.088-0.152 0.086-0.152 0.084-0.153 0.082-0.154 0.08-0.153 0.078-0.154 0.076-0.155 0.075-0.155 0.072-0.155 0.07-0.156 0.067-0.155 0.066-0.156 0.064-0.157 0.061-0.156 0.059-0.157 0.058-0.157 0.054-0.157 0.053-0.157 0.05-0.157 0.048-0.157 0.045-0.157 0.044-0.158 0.04-0.157 0.039-0.157 0.036-0.157 0.033-0.157 0.031-0.157 0.029-0.157 0.025-0.157 0.024-0.157 0.021-0.156 0.018-0.156 0.015-0.156 0.013-0.155 0.01-0.156 0.008-0.155 0.004-0.154 0.002-0.155 -0.001-0.154 -0.003-0.153 -0.007-0.153 -0.009-0.153 -0.012-0.152 -0.015-0.151 -0.019-0.151 -0.01-0.076 -0.011-0.075 -0.011-0.075 -0.013-0.075 -0.013-0.074 -0.014-0.075 -0.014-0.074 -0.016-0.075 -0.016-0.074 -0.017-0.074 -0.017-0.074 -0.019-0.073 -0.019-0.074 -0.02-0.073 -0.021-0.073 -0.022-0.073 -0.022-0.072 -0.023-0.073 -0.024-0.072 -0.025-0.072 -0.025-0.072 -0.027-0.072 0.07 0.072Zm1.317 3.825l-0.023 0.173 -0.026 0.172 -0.028 0.172 -0.031 0.173 -0.034 0.171 -0.037 0.172 -0.039 0.172 -0.042 0.171 -0.044 0.171 -0.047 0.171 -0.049 0.171 -0.052 0.17 -0.055 0.17 -0.056 0.17 -0.059 0.169 -0.062 0.169 -0.064 0.168 -0.066 0.168 -0.068 0.168 -0.07 0.167 -0.073 0.167 -0.075 0.167 -0.077 0.165 -0.079 0.166 -0.081 0.165 -0.083 0.164 -0.086 0.163 -0.087 0.163 -0.089 0.163 -0.091 0.162 -0.093 0.161 -0.095 0.16 -0.097 0.16 -0.099 0.159 -0.1 0.159 -0.103 0.157 -0.104 0.157 -0.106 0.156 -0.107 0.156 -0.116 0.163 -0.118 0.163 -0.119 0.162 -0.121 0.16 -0.123 0.16 -0.124 0.158 -0.126 0.157 -0.127 0.156 -0.129 0.155 -0.131 0.154 -0.131 0.153 -0.133 0.151 -0.135 0.15 -0.135 0.148 -0.137 0.147 -0.138 0.146 -0.139 0.145 -0.14 0.143 -0.141 0.141 -0.142 0.14 -0.143 0.139 -0.144 0.137 -0.144 0.135 -0.146 0.134 -0.146 0.132 -0.148 0.13 -0.147 0.129 -0.149 0.127 -0.149 0.125 -0.149 0.124 -0.15 0.121 -0.151 0.12 -0.151 0.118 -0.151 0.116 -0.152 0.114 -0.152 0.112 -0.152 0.111 -0.152 0.108 -0.153 0.106 -0.153 0.104 -0.153 0.102 -0.153 0.099 -0.154 0.098 -0.153 0.095 -0.153 0.093 -0.153 0.091 -0.153 0.089 -0.153 0.086 -0.153 0.084 -0.153 0.081 -0.152 0.079 -0.152 0.076 -0.152 0.074 -0.152 0.072 -0.151 0.069 -0.151 0.066 -0.151 0.063 -0.15 0.061 -0.15 0.058 -0.15 0.056 -0.149 0.052 -0.149 0.05 -0.017 0.005 -0.107 0.117 6.184 6.185 0.059-0.058 0.182-0.181 0.18-0.182 0.177-0.183 0.174-0.184 0.172-0.186 0.169-0.186 0.167-0.187 0.164-0.188 0.162-0.189 0.159-0.19 0.157-0.191 0.155-0.192 0.152-0.192 0.149-0.194 0.147-0.194 0.144-0.195 0.142-0.195 0.139-0.197 0.137-0.197 0.134-0.197 0.132-0.198 0.129-0.199 0.127-0.2 0.124-0.2 0.122-0.2 0.119-0.201 0.117-0.202 0.114-0.202 0.111-0.202 0.11-0.203 0.106-0.203 0.104-0.203 0.102-0.204 0.099-0.204 0.096-0.204 0.094-0.205 0.092-0.205 0.088-0.205 0.087-0.205 0.084-0.205 0.081-0.206 0.079-0.205 0.076-0.206 0.074-0.206 0.071-0.205 0.069-0.206 0.066-0.206 0.063-0.205 0.061-0.206 0.059-0.205 0.056-0.205 0.053-0.205 0.051-0.205 0.049-0.205 0.045-0.205 0.044-0.204 0.041-0.204 0.038-0.203 0.036-0.203 0.033-0.204 0.031-0.202 0.028-0.202 0.025-0.202 0.023-0.201 0.021-0.201 0.018-0.2 0.016-0.2 0.013-0.199 0.01-0.198 0.008-0.198 0.006-0.197 0.002-0.197 0.001-0.196 -0.002-0.195 -0.005-0.195 -0.007-0.193 -0.009-0.193 -0.013-0.192 -0.014-0.192 -0.017-0.19 -0.02-0.19 -0.022-0.188 -0.025-0.188 -0.027-0.187 -0.03-0.186 -0.032-0.185 -0.034-0.184 -0.037-0.183 -0.04-0.181 -0.042-0.181 -0.045-0.18 -0.047-0.178 -0.049-0.178 -0.052-0.176 -0.055-0.175 -0.057-0.174 -0.059-0.173 -0.062-0.171 -0.065-0.172 -0.032-0.083 -0.034-0.084 -0.035-0.084 -0.035-0.084 -0.035-0.083 -0.036-0.083 -0.037-0.083 -0.038-0.082 -0.019-0.041 -0.013 0.114Z" class="a"/><path d="M94.642 44.786c0.002 0.359-0.01 0.682 0.002 1.088 0.102 3.523-2.148 25.154 11.816 33.635 34.384 20.885 65.338 30.73 56.658 39.756 -0.151 0.157 3.28-2.111 4.973-4.617 1.955-2.895 3.854-7.055 1.892-10.236 -21.334-11.9-29.507-16.045-46.737-25.774 -22.643-12.784-18.181-20.64-18.36-34.812l-10.244 0.96Z" class="a"/><path d="M104.89 44.157l0.001 0.329 0.001 0.327 -0.002 0.324 -0.002 0.322 -0.004 0.32 -0.005 0.318 -0.006 0.315 -0.007 0.314 -0.008 0.311 -0.008 0.31 -0.01 0.308 -0.02 0.609 -0.022 0.603 -0.023 0.595 -0.024 0.588 -0.023 0.581 -0.022 0.575 -0.019 0.569 -0.017 0.562 -0.008 0.28 -0.006 0.278 -0.006 0.276 -0.004 0.275 -0.003 0.274 -0.002 0.273 0 0.272 0.001 0.27 0.003 0.269 0.004 0.268 0.006 0.267 0.008 0.266 0.01 0.265 0.012 0.264 0.014 0.263 0.016 0.262 0.018 0.261 0.021 0.26 0.024 0.259 0.025 0.259 0.029 0.258 0.031 0.257 0.035 0.256 0.018 0.128 0.019 0.128 0.019 0.127 0.021 0.128 0.021 0.127 0.022 0.127 0.023 0.127 0.024 0.127 0.024 0.127 0.025 0.126 0.026 0.127 0.027 0.126 0.028 0.126 0.029 0.127 0.03 0.126 0.03 0.125 0.032 0.126 0.032 0.126 0.033 0.126 0.035 0.125 0.035 0.125 0.036 0.126 0.037 0.125 0.039 0.125 0.039 0.125 0.04 0.125 0.041 0.125 0.042 0.125 0.044 0.125 0.044 0.125 0.046 0.125 0.046 0.124 0.048 0.125 0.049 0.125 0.049 0.124 0.051 0.125 0.053 0.124 0.053 0.125 0.054 0.124 0.056 0.125 0.057 0.124 0.058 0.125 0.059 0.124 0.06 0.125 0.062 0.125 0.063 0.124 0.064 0.125 0.066 0.124 0.066 0.125 0.068 0.124 0.07 0.125 0.07 0.125 0.072 0.124 0.074 0.125 0.074 0.125 0.076 0.125 0.078 0.125 0.078 0.125 0.08 0.125 0.082 0.125 0.083 0.125 0.084 0.126 0.086 0.125 0.087 0.125 0.089 0.126 0.09 0.126 0.092 0.125 0.093 0.126 0.095 0.126 0.096 0.126 0.098 0.126 0.099 0.127 0.101 0.126 0.102 0.126 0.104 0.127 0.106 0.127 0.107 0.127 0.109 0.127 0.11 0.127 0.112 0.127 0.113 0.128 0.116 0.128 0.117 0.127 0.118 0.128 0.121 0.129 0.122 0.128 0.123 0.128 0.126 0.129 0.127 0.129 0.129 0.129 0.13 0.129 0.133 0.13 0.134 0.13 0.136 0.129 0.138 0.131 0.139 0.13 0.142 0.13 0.143 0.131 0.145 0.131 0.147 0.131 0.149 0.132 0.151 0.131 0.152 0.132 0.155 0.132 0.156 0.133 0.159 0.133 0.16 0.132 0.162 0.134 0.164 0.133 0.167 0.134 0.168 0.134 0.17 0.134 0.172 0.135 0.174 0.134 0.176 0.136 0.178 0.135 0.181 0.136 0.182 0.136 0.184 0.136 0.187 0.137 0.189 0.137 0.19 0.137 0.193 0.138 0.195 0.138 0.197 0.138 0.199 0.138 0.202 0.139 0.203 0.14 0.206 0.139 0.208 0.14 0.21 0.141 0.213 0.14 0.214 0.141 0.217 0.142 0.219 0.141 0.222 0.143 0.223 0.142 0.226 0.143 0.228 0.143 0.231 0.144 0.233 0.144 0.235 0.145 0.238 0.145 0.239 0.145 0.243 0.146 0.244 0.146 0.247 0.146 0.25 0.147 0.252 0.148 0.254 0.147 0.257 0.149 0.259 0.148 0.262 0.15 0.264 0.149 1.589 0.896 1.541 0.866 1.495 0.838 1.455 0.813 1.418 0.79 1.385 0.769 1.357 0.751 1.331 0.735 1.312 0.723 1.295 0.711 1.282 0.703 1.275 0.698 1.269 0.694 1.27 0.693 2.556 1.393 2.603 1.418 2.684 1.464 1.382 0.755 1.415 0.773 1.451 0.794 1.492 0.818 1.536 0.843 1.585 0.872 1.638 0.903 1.694 0.936 1.755 0.972 1.82 1.009 1.89 1.051 1.962 1.093 0.045 0.075 0.044 0.075 0.042 0.075 0.041 0.076 0.04 0.076 0.039 0.076 0.037 0.077 0.035 0.077 0.035 0.078 0.033 0.077 0.031 0.078 0.031 0.079 0.029 0.078 0.028 0.079 0.027 0.079 0.025 0.079 0.024 0.08 0.023 0.08 0.022 0.08 0.02 0.08 0.019 0.081 0.019 0.081 0.017 0.081 0.015 0.081 0.015 0.081 0.013 0.082 0.013 0.082 0.011 0.082 0.01 0.082 0.009 0.082 0.008 0.083 0.007 0.082 0.006 0.083 0.004 0.083 0.004 0.083 0.003 0.083 0.001 0.084 0.001 0.083 0 0.084 -0.002 0.084 -0.002 0.083 -0.003 0.084 -0.005 0.084 -0.005 0.084 -0.006 0.085 -0.007 0.084 -0.008 0.084 -0.009 0.084 -0.01 0.085 -0.011 0.084 -0.011 0.085 -0.012 0.084 -0.014 0.085 -0.014 0.084 -0.015 0.085 -0.015 0.084 -0.017 0.085 -0.017 0.085 -0.018 0.084 -0.019 0.085 -0.04 0.169 -0.043 0.168 -0.046 0.169 -0.049 0.168 -0.051 0.168 -0.054 0.168 -0.056 0.167 -0.059 0.167 -0.061 0.166 -0.064 0.166 -0.066 0.165 -0.067 0.164 -0.07 0.164 -0.072 0.163 -0.073 0.162 -0.075 0.161 -0.077 0.16 -0.079 0.16 -0.08 0.158 -0.081 0.157 -0.083 0.156 -0.083 0.155 -0.085 0.153 -0.086 0.153 -0.087 0.151 -0.088 0.149 -0.089 0.148 -0.089 0.147 -0.09 0.145 -0.09 0.144 -0.091 0.142 -0.091 0.14 -0.092 0.138 -0.091 0.137 -0.081 0.117 -0.083 0.117 -0.085 0.116 -0.088 0.116 -0.089 0.116 -0.092 0.114 -0.093 0.115 -0.095 0.113 -0.097 0.113 -0.098 0.112 -0.099 0.111 -0.101 0.11 -0.101 0.109 -0.103 0.108 -0.103 0.107 -0.104 0.106 -0.105 0.105 -0.106 0.104 -0.105 0.102 -0.106 0.102 -0.106 0.099 -0.106 0.099 -0.106 0.097 -0.105 0.095 -0.105 0.094 -0.105 0.092 -0.104 0.091 -0.104 0.089 -0.102 0.087 -0.102 0.086 -0.199 0.165 -0.194 0.157 -0.188 0.15 -0.18 0.14 -0.172 0.132 -0.163 0.122 -0.153 0.112 -0.141 0.102 -0.129 0.092 -0.116 0.081 -0.101 0.069 -0.087 0.057 -0.07 0.045 -0.054 0.033 -0.035 0.019 -0.01 0.005 -0.006 0.001 -0.001 0 0-0.002 0.005-0.005 0.1-0.106 0.096-0.106 0.093-0.106 0.089-0.106 0.085-0.106 0.082-0.106 0.079-0.107 0.075-0.106 0.071-0.107 0.034-0.053 0.034-0.053 0.032-0.054 0.032-0.053 0.031-0.053 0.03-0.054 0.029-0.053 0.028-0.054 0.028-0.053 0.026-0.054 0.026-0.054 0.025-0.053 0.024-0.054 0.023-0.054 0.022-0.053 0.021-0.054 0.021-0.054 0.02-0.054 0.019-0.054 0.017-0.054 0.018-0.053 0.016-0.054 0.015-0.054 0.015-0.055 0.014-0.054 0.013-0.054 0.012-0.054 0.011-0.054 0.01-0.054 0.01-0.055 0.009-0.054 0.008-0.054 0.007-0.055 0.006-0.054 0.006-0.055 0.004-0.054 0.004-0.055 0.003-0.054 0.002-0.055 0.002-0.055 0-0.055 0-0.054 -0.001-0.055 -0.002-0.055 -0.003-0.055 -0.003-0.055 -0.004-0.055 -0.005-0.055 -0.006-0.055 -0.007-0.056 -0.008-0.055 -0.008-0.055 -0.009-0.055 -0.01-0.056 -0.01-0.055 -0.012-0.056 -0.012-0.055 -0.013-0.056 -0.028-0.111 -0.032-0.112 -0.035-0.112 -0.037-0.112 -0.041-0.112 -0.044-0.112 -0.047-0.113 -0.05-0.113 -0.053-0.113 -0.056-0.114 -0.059-0.114 -0.062-0.114 -0.065-0.114 -0.068-0.114 -0.071-0.115 -0.074-0.115 -0.077-0.115 -0.079-0.116 -0.083-0.116 -0.086-0.116 -0.088-0.116 -0.091-0.117 -0.094-0.117 -0.097-0.117 -0.1-0.118 -0.103-0.118 -0.105-0.118 -0.108-0.118 -0.111-0.119 -0.114-0.119 -0.116-0.12 -0.12-0.12 -0.121-0.12 -0.125-0.12 -0.127-0.121 -0.13-0.121 -0.133-0.122 -0.135-0.122 -0.138-0.122 -0.141-0.122 -0.143-0.123 -0.146-0.124 -0.149-0.123 -0.151-0.124 -0.153-0.125 -0.156-0.124 -0.159-0.126 -0.161-0.125 -0.164-0.126 -0.166-0.126 -0.169-0.127 -0.171-0.127 -0.174-0.128 -0.176-0.128 -0.178-0.128 -0.181-0.129 -0.184-0.129 -0.185-0.13 -0.188-0.13 -0.191-0.13 -0.193-0.131 -0.195-0.131 -0.198-0.132 -0.2-0.132 -0.202-0.133 -0.204-0.133 -0.207-0.134 -0.209-0.134 -0.211-0.134 -0.214-0.135 -0.216-0.136 -0.218-0.135 -0.442-0.274 -0.452-0.275 -0.46-0.277 -0.468-0.279 -0.477-0.281 -0.485-0.283 -0.493-0.286 -0.502-0.287 -0.509-0.29 -0.517-0.291 -0.525-0.294 -0.533-0.297 -0.54-0.298 -0.548-0.301 -0.555-0.303 -0.563-0.305 -0.569-0.308 -0.577-0.31 -0.584-0.312 -0.59-0.316 -0.597-0.317 -0.604-0.32 -0.61-0.323 -1.24-0.653 -1.265-0.663 -1.289-0.675 -2.647-1.382 -1.356-0.708 -1.377-0.72 -1.397-0.731 -1.416-0.744 -1.434-0.757 -0.724-0.383 -0.728-0.386 -0.732-0.389 -0.736-0.393 -0.741-0.396 -0.744-0.399 -0.747-0.403 -0.752-0.405 -0.755-0.41 -0.758-0.413 -0.762-0.416 -0.765-0.419 -0.768-0.424 -0.771-0.426 -0.774-0.431 -0.776-0.434 -0.78-0.437 -0.782-0.442 -0.785-0.444 -0.786-0.449 -0.79-0.452 -0.791-0.457 -0.794-0.46 -0.795-0.463 -0.798-0.468 -0.799-0.472 -0.801-0.475 -0.802-0.48 -0.804-0.483 -0.805-0.488 -0.163-0.1 -0.161-0.101 -0.16-0.102 -0.159-0.104 -0.157-0.104 -0.155-0.106 -0.155-0.107 -0.152-0.108 -0.152-0.11 -0.149-0.11 -0.149-0.111 -0.147-0.113 -0.145-0.113 -0.145-0.115 -0.142-0.116 -0.142-0.116 -0.14-0.118 -0.139-0.119 -0.137-0.12 -0.136-0.12 -0.134-0.122 -0.134-0.123 -0.132-0.123 -0.13-0.125 -0.129-0.125 -0.128-0.127 -0.127-0.127 -0.125-0.129 -0.124-0.129 -0.123-0.13 -0.122-0.131 -0.12-0.131 -0.119-0.133 -0.117-0.134 -0.117-0.134 -0.115-0.135 -0.114-0.136 -0.112-0.136 -0.112-0.138 -0.11-0.138 -0.109-0.139 -0.108-0.14 -0.106-0.14 -0.105-0.141 -0.105-0.142 -0.103-0.143 -0.101-0.143 -0.101-0.144 -0.099-0.145 -0.099-0.145 -0.097-0.146 -0.096-0.147 -0.095-0.147 -0.093-0.148 -0.093-0.148 -0.092-0.149 -0.09-0.15 -0.089-0.15 -0.088-0.15 -0.087-0.152 -0.086-0.151 -0.085-0.153 -0.084-0.152 -0.083-0.154 -0.082-0.154 -0.08-0.154 -0.08-0.155 -0.078-0.155 -0.078-0.155 -0.076-0.156 -0.076-0.157 -0.074-0.157 -0.074-0.157 -0.072-0.158 -0.072-0.158 -0.07-0.158 -0.07-0.159 -0.068-0.159 -0.068-0.16 -0.066-0.159 -0.066-0.16 -0.065-0.161 -0.064-0.16 -0.062-0.161 -0.062-0.162 -0.061-0.161 -0.06-0.162 -0.06-0.162 -0.058-0.162 -0.057-0.162 -0.057-0.163 -0.055-0.163 -0.055-0.163 -0.054-0.163 -0.053-0.163 -0.052-0.163 -0.051-0.164 -0.051-0.163 -0.05-0.164 -0.048-0.164 -0.048-0.164 -0.047-0.164 -0.047-0.164 -0.045-0.164 -0.045-0.164 -0.044-0.164 -0.043-0.165 -0.043-0.164 -0.082-0.328 -0.08-0.329 -0.077-0.328 -0.073-0.328 -0.071-0.327 -0.068-0.327 -0.065-0.326 -0.063-0.326 -0.06-0.325 -0.057-0.325 -0.055-0.323 -0.052-0.322 -0.05-0.322 -0.048-0.32 -0.045-0.319 -0.043-0.317 -0.04-0.316 -0.039-0.315 -0.036-0.312 -0.035-0.312 -0.032-0.309 -0.03-0.307 -0.029-0.306 -0.026-0.303 -0.025-0.302 -0.023-0.299 -0.022-0.296 -0.02-0.295 -0.018-0.291 -0.016-0.289 -0.016-0.287 -0.013-0.283 -0.013-0.281 -0.011-0.278 -0.01-0.275 -0.008-0.271 -0.008-0.269 -0.006-0.265 -0.005-0.261 -0.005-0.258 -0.003-0.255 -0.002-0.251 -0.002-0.247 -0.001-0.243 0.001-0.475 0.003-0.458 0.005-0.44 0.006-0.423 0.008-0.404 0.009-0.385 0.009-0.365 0.018-0.666 0.008-0.301 0.006-0.277 0.005-0.253 0.002-0.23 0-0.204 -0.001-0.092 -0.002-0.086 -0.004-0.149 -0.001-0.142 -0.001-0.137 0.001-0.134 0.002-0.262 0.001-0.131 0-0.133 10.244-0.96 0.004 0.331Zm-9.25 1.54l0 0.011 0.003 0.143 0.003 0.091 0.001 0.104 0 0.216 -0.003 0.238 -0.004 0.26 -0.007 0.281 -0.008 0.302 -0.017 0.666 -0.009 0.363 -0.009 0.382 -0.008 0.4 -0.006 0.419 -0.005 0.436 -0.003 0.453 -0.001 0.47 0.001 0.239 0.002 0.244 0.002 0.247 0.003 0.252 0.004 0.254 0.006 0.258 0.006 0.262 0.007 0.264 0.009 0.268 0.009 0.27 0.011 0.274 0.013 0.276 0.013 0.28 0.015 0.281 0.016 0.285 0.018 0.287 0.02 0.289 0.021 0.292 0.023 0.294 0.024 0.296 0.026 0.298 0.028 0.3 0.03 0.302 0.032 0.304 0.033 0.305 0.036 0.307 0.038 0.308 0.04 0.31 0.042 0.311 0.044 0.313 0.047 0.313 0.048 0.315 0.052 0.315 0.053 0.317 0.056 0.317 0.059 0.318 0.061 0.318 0.064 0.319 0.066 0.319 0.069 0.32 0.072 0.32 0.075 0.32 0.077 0.32 0.081 0.321 0.041 0.159 0.042 0.16 0.043 0.16 0.044 0.16 0.044 0.159 0.045 0.16 0.046 0.159 0.047 0.16 0.047 0.159 0.048 0.159 0.049 0.159 0.05 0.159 0.051 0.159 0.051 0.158 0.053 0.158 0.053 0.158 0.054 0.158 0.055 0.158 0.055 0.157 0.057 0.158 0.057 0.156 0.058 0.157 0.059 0.156 0.06 0.157 0.061 0.155 0.062 0.156 0.062 0.155 0.064 0.155 0.064 0.154 0.065 0.154 0.066 0.154 0.068 0.153 0.068 0.153 0.069 0.153 0.069 0.152 0.071 0.151 0.072 0.152 0.073 0.15 0.074 0.15 0.074 0.15 0.076 0.15 0.077 0.149 0.077 0.148 0.079 0.148 0.079 0.148 0.081 0.146 0.081 0.147 0.083 0.145 0.084 0.146 0.084 0.144 0.086 0.144 0.087 0.144 0.087 0.143 0.089 0.142 0.09 0.142 0.091 0.141 0.092 0.14 0.093 0.14 0.094 0.139 0.095 0.138 0.096 0.138 0.097 0.137 0.099 0.136 0.099 0.136 0.101 0.134 0.102 0.135 0.103 0.133 0.104 0.133 0.105 0.132 0.106 0.131 0.107 0.13 0.109 0.13 0.11 0.128 0.111 0.128 0.112 0.128 0.113 0.126 0.115 0.125 0.115 0.125 0.117 0.124 0.118 0.123 0.119 0.122 0.121 0.121 0.121 0.12 0.123 0.12 0.125 0.118 0.125 0.118 0.127 0.116 0.128 0.116 0.129 0.115 0.13 0.114 0.132 0.112 0.133 0.112 0.135 0.111 0.135 0.11 0.137 0.109 0.139 0.108 0.139 0.107 0.141 0.106 0.143 0.104 0.143 0.104 0.145 0.103 0.147 0.102 0.148 0.1 0.149 0.1 0.151 0.098 0.152 0.097 0.153 0.097 0.156 0.095 0.802 0.486 0.801 0.482 0.8 0.478 0.799 0.474 0.796 0.47 0.796 0.466 0.793 0.463 0.791 0.459 0.79 0.455 0.787 0.451 0.785 0.447 0.782 0.444 0.781 0.44 0.777 0.437 0.775 0.433 0.772 0.429 0.77 0.426 0.766 0.422 0.764 0.419 0.76 0.416 0.757 0.411 0.753 0.409 0.75 0.405 0.747 0.402 0.743 0.399 0.739 0.395 0.735 0.392 0.731 0.389 0.727 0.386 0.723 0.382 1.433 0.756 1.415 0.743 1.396 0.731 1.376 0.72 1.356 0.708 2.647 1.382 1.29 0.675 1.266 0.664 1.241 0.654 0.612 0.323 0.605 0.321 0.598 0.318 0.592 0.316 0.585 0.313 0.578 0.311 0.572 0.309 0.564 0.306 0.557 0.304 0.55 0.302 0.543 0.3 0.535 0.297 0.528 0.296 0.52 0.293 0.512 0.291 0.505 0.29 0.497 0.287 0.488 0.285 0.481 0.284 0.472 0.281 0.465 0.28 0.456 0.278 0.447 0.276 0.221 0.138 0.218 0.137 0.216 0.136 0.214 0.137 0.212 0.135 0.21 0.136 0.207 0.135 0.206 0.135 0.203 0.134 0.2 0.134 0.199 0.133 0.196 0.134 0.194 0.132 0.192 0.133 0.19 0.132 0.187 0.132 0.184 0.131 0.183 0.132 0.18 0.131 0.178 0.13 0.176 0.131 0.173 0.13 0.171 0.129 0.168 0.13 0.166 0.129 0.163 0.129 0.162 0.129 0.159 0.129 0.156 0.128 0.154 0.128 0.151 0.128 0.149 0.128 0.147 0.128 0.144 0.127 0.141 0.128 0.139 0.127 0.137 0.127 0.134 0.127 0.131 0.128 0.129 0.126 0.126 0.127 0.124 0.127 0.121 0.127 0.119 0.127 0.115 0.127 0.114 0.127 0.111 0.128 0.107 0.127 0.106 0.127 0.102 0.128 0.1 0.127 0.097 0.128 0.095 0.128 0.091 0.129 0.089 0.129 0.086 0.129 0.083 0.129 0.08 0.13 0.077 0.13 0.075 0.13 0.071 0.131 0.068 0.131 0.065 0.132 0.062 0.132 0.059 0.133 0.056 0.134 0.052 0.134 0.049 0.134 0.045 0.135 0.042 0.135 0.038 0.136 0.034 0.133 0.017 0.072 0.015 0.069 0.014 0.068 0.014 0.069 0.012 0.069 0.011 0.069 0.01 0.069 0.01 0.069 0.008 0.069 0.008 0.07 0.006 0.069 0.005 0.07 0.005 0.069 0.003 0.069 0.003 0.07 0.001 0.054 0.074-0.072 0.1-0.098 0.099-0.099 0.098-0.1 0.098-0.101 0.096-0.102 0.095-0.102 0.094-0.103 0.093-0.103 0.091-0.104 0.089-0.104 0.088-0.105 0.085-0.105 0.084-0.105 0.081-0.105 0.08-0.104 0.076-0.105 0.075-0.105 0.072-0.106 0.087-0.129 0.088-0.133 0.087-0.134 0.087-0.135 0.086-0.137 0.086-0.139 0.085-0.14 0.085-0.141 0.083-0.143 0.083-0.144 0.082-0.144 0.08-0.146 0.08-0.147 0.078-0.148 0.077-0.148 0.075-0.15 0.074-0.15 0.073-0.151 0.07-0.151 0.069-0.152 0.067-0.152 0.065-0.153 0.064-0.153 0.061-0.154 0.058-0.154 0.057-0.153 0.054-0.154 0.052-0.154 0.05-0.154 0.047-0.153 0.044-0.154 0.042-0.153 0.039-0.153 0.036-0.155 0.017-0.074 0.016-0.076 0.016-0.075 0.014-0.076 0.014-0.075 0.014-0.076 0.012-0.075 0.012-0.075 0.011-0.075 0.01-0.074 0.009-0.074 0.009-0.074 0.008-0.075 0.007-0.073 0.006-0.074 0.005-0.073 0.005-0.073 0.004-0.073 0.002-0.072 0.002-0.072 0.002-0.072 0-0.072 -0.001-0.072 -0.001-0.071 -0.002-0.071 -0.003-0.07 -0.004-0.071 -0.005-0.07 -0.006-0.069 -0.007-0.069 -0.007-0.069 -0.009-0.07 -0.009-0.068 -0.01-0.068 -0.012-0.068 -0.012-0.068 -0.013-0.067 -0.014-0.067 -0.015-0.066 -0.016-0.067 -0.016-0.066 -0.018-0.066 -0.019-0.065 -0.02-0.065 -0.021-0.065 -0.021-0.065 -0.023-0.064 -0.024-0.064 -0.025-0.064 -0.026-0.063 -0.026-0.064 -0.029-0.063 -0.029-0.062 -0.03-0.063 -0.031-0.062 -0.032-0.062 -0.017-0.032 -1.722-0.959 -1.888-1.05 -1.819-1.009 -1.755-0.971 -1.693-0.935 -1.637-0.903 -1.584-0.871 -1.536-0.844 -1.491-0.817 -1.451-0.794 -1.414-0.773 -1.382-0.754 -2.684-1.464 -2.603-1.418 -2.556-1.393 -1.27-0.693 -1.27-0.695 -1.275-0.697 -1.283-0.704 -1.296-0.712 -1.312-0.723 -1.333-0.736 -1.358-0.752 -1.386-0.77 -1.419-0.79 -1.456-0.813 -1.497-0.839 -1.541-0.866 -1.591-0.897 -0.266-0.151 -0.264-0.15 -0.262-0.151 -0.259-0.149 -0.257-0.15 -0.254-0.148 -0.252-0.149 -0.25-0.148 -0.247-0.148 -0.245-0.147 -0.243-0.147 -0.24-0.146 -0.238-0.147 -0.236-0.145 -0.233-0.146 -0.231-0.145 -0.229-0.145 -0.226-0.144 -0.225-0.144 -0.222-0.144 -0.22-0.143 -0.217-0.143 -0.216-0.143 -0.213-0.142 -0.211-0.142 -0.209-0.142 -0.207-0.141 -0.204-0.142 -0.203-0.14 -0.2-0.141 -0.198-0.14 -0.196-0.14 -0.194-0.14 -0.192-0.139 -0.19-0.139 -0.188-0.139 -0.186-0.139 -0.184-0.138 -0.182-0.139 -0.179-0.137 -0.178-0.138 -0.176-0.137 -0.174-0.138 -0.172-0.137 -0.169-0.136 -0.169-0.137 -0.166-0.136 -0.164-0.136 -0.162-0.136 -0.16-0.136 -0.159-0.135 -0.156-0.136 -0.155-0.135 -0.153-0.135 -0.151-0.135 -0.149-0.134 -0.147-0.135 -0.146-0.134 -0.144-0.134 -0.141-0.134 -0.141-0.134 -0.138-0.134 -0.137-0.134 -0.135-0.133 -0.133-0.133 -0.131-0.134 -0.13-0.133 -0.128-0.133 -0.126-0.133 -0.125-0.133 -0.123-0.132 -0.121-0.133 -0.12-0.132 -0.118-0.133 -0.116-0.132 -0.115-0.132 -0.113-0.133 -0.112-0.132 -0.11-0.132 -0.108-0.132 -0.107-0.132 -0.105-0.132 -0.104-0.132 -0.102-0.131 -0.1-0.132 -0.099-0.132 -0.098-0.132 -0.096-0.131 -0.094-0.132 -0.093-0.132 -0.092-0.131 -0.09-0.132 -0.089-0.131 -0.087-0.132 -0.085-0.131 -0.085-0.132 -0.083-0.131 -0.081-0.132 -0.08-0.131 -0.079-0.132 -0.077-0.131 -0.076-0.132 -0.074-0.132 -0.073-0.131 -0.072-0.132 -0.071-0.131 -0.069-0.132 -0.068-0.131 -0.066-0.132 -0.065-0.132 -0.064-0.131 -0.063-0.132 -0.061-0.132 -0.06-0.131 -0.059-0.132 -0.058-0.132 -0.056-0.132 -0.056-0.132 -0.054-0.131 -0.052-0.133 -0.052-0.131 -0.05-0.132 -0.05-0.132 -0.048-0.132 -0.047-0.133 -0.046-0.132 -0.044-0.132 -0.044-0.132 -0.042-0.132 -0.042-0.132 -0.04-0.133 -0.04-0.132 -0.038-0.132 -0.037-0.133 -0.036-0.132 -0.035-0.133 -0.035-0.133 -0.033-0.132 -0.032-0.133 -0.031-0.133 -0.03-0.133 -0.03-0.133 -0.028-0.132 -0.028-0.134 -0.026-0.133 -0.026-0.132 -0.025-0.134 -0.024-0.133 -0.023-0.133 -0.022-0.134 -0.021-0.133 -0.021-0.134 -0.02-0.133 -0.019-0.136 -0.036-0.266 -0.032-0.268 -0.03-0.268 -0.027-0.269 -0.024-0.269 -0.022-0.27 -0.019-0.27 -0.017-0.271 -0.014-0.271 -0.012-0.272 -0.011-0.273 -0.008-0.273 -0.006-0.273 -0.004-0.275 -0.003-0.275 -0.001-0.276 0-0.277 0.002-0.277 0.003-0.279 0.004-0.279 0.006-0.281 0.006-0.281 0.008-0.283 0.017-0.567 0.02-0.573 0.022-0.577 0.023-0.582 0.023-0.588 0.023-0.593 0.022-0.6 0.021-0.606 0.009-0.305 0.009-0.307 0.007-0.309 0.007-0.31 0.006-0.313 0.005-0.314 0.004-0.316 0.002-0.318 0.001-0.207 -8.251 0.773Z" class="a"/><g><g><path d="M10.136 116.233l10.916 0 0 0 10.136-0.001 -15.595-15.541 -15.593 15.543 10.136-0.001 0 0Z" class="a"/><path d="M31.188 116.232l-10.136 0.001 0 0 -10.916 0 0 0 -10.136 0.001 15.593-15.543 15.595 15.541Zm-28.768-0.998l7.716-0.001 10.916 0 7.716 0 -13.175-13.13 -13.173 13.131Z" class="a"/><path d="M22.082 119.785c0.587 4.341 1.987 6.518 6.3 6.961l-0.102 10.68c-2.998 0.001-3.613-0.502-3.671-0.541 -0.905-0.604-3.134-2.97-3.591-7.859 -0.245-2.619-0.099-6.897 1.064-9.241Z" class="a"/><path d="M22.11 119.986l0.03 0.199 0.03 0.196 0.032 0.192 0.034 0.19 0.034 0.186 0.037 0.183 0.037 0.18 0.04 0.177 0.041 0.174 0.042 0.17 0.045 0.168 0.046 0.165 0.048 0.161 0.05 0.159 0.051 0.155 0.054 0.153 0.056 0.149 0.028 0.074 0.03 0.073 0.029 0.072 0.03 0.072 0.031 0.07 0.031 0.07 0.032 0.069 0.033 0.069 0.033 0.067 0.033 0.067 0.034 0.067 0.035 0.065 0.035 0.065 0.036 0.064 0.036 0.063 0.038 0.063 0.037 0.062 0.038 0.061 0.039 0.06 0.04 0.06 0.04 0.059 0.041 0.058 0.041 0.057 0.042 0.057 0.043 0.056 0.044 0.056 0.044 0.054 0.045 0.054 0.045 0.053 0.046 0.053 0.047 0.052 0.048 0.051 0.048 0.05 0.049 0.05 0.049 0.049 0.051 0.048 0.051 0.047 0.052 0.047 0.052 0.046 0.054 0.046 0.054 0.044 0.055 0.044 0.055 0.044 0.057 0.042 0.057 0.042 0.058 0.042 0.059 0.04 0.059 0.04 0.061 0.039 0.061 0.039 0.062 0.037 0.063 0.038 0.063 0.036 0.065 0.036 0.065 0.035 0.066 0.034 0.067 0.034 0.068 0.033 0.069 0.032 0.07 0.032 0.07 0.031 0.071 0.03 0.073 0.03 0.073 0.029 0.074 0.028 0.075 0.028 0.076 0.027 0.076 0.026 0.078 0.026 0.079 0.025 0.079 0.024 0.081 0.024 0.081 0.023 0.083 0.022 0.083 0.022 0.084 0.021 0.085 0.02 0.087 0.02 0.087 0.019 0.088 0.018 0.089 0.018 0.091 0.017 0.091 0.017 0.092 0.016 0.093 0.015 0.095 0.014 0.095 0.014 0.096 0.013 0.098 0.013 0.098 0.012 0.2 0.022 -0.102 10.68 -0.274-0.001 -0.261-0.004 -0.247-0.007 -0.234-0.009 -0.222-0.012 -0.209-0.013 -0.197-0.016 -0.186-0.017 -0.175-0.018 -0.163-0.02 -0.153-0.021 -0.143-0.023 -0.132-0.023 -0.123-0.023 -0.114-0.024 -0.105-0.025 -0.096-0.024 -0.088-0.025 -0.08-0.024 -0.072-0.024 -0.066-0.023 -0.058-0.022 -0.051-0.022 -0.046-0.02 -0.039-0.019 -0.034-0.018 -0.028-0.016 -0.024-0.014 -0.033-0.022 -0.018-0.012 -0.044-0.03 -0.045-0.032 -0.047-0.035 -0.049-0.037 -0.05-0.04 -0.052-0.043 -0.054-0.045 -0.055-0.049 -0.056-0.051 -0.058-0.053 -0.059-0.057 -0.06-0.059 -0.061-0.062 -0.062-0.064 -0.063-0.068 -0.064-0.07 -0.065-0.074 -0.065-0.076 -0.066-0.079 -0.067-0.082 -0.067-0.085 -0.068-0.087 -0.068-0.091 -0.069-0.094 -0.068-0.097 -0.069-0.1 -0.069-0.102 -0.069-0.106 -0.069-0.109 -0.069-0.112 -0.068-0.115 -0.069-0.119 -0.068-0.121 -0.067-0.125 -0.068-0.127 -0.066-0.131 -0.066-0.134 -0.066-0.138 -0.064-0.14 -0.064-0.144 -0.063-0.147 -0.062-0.151 -0.06-0.153 -0.06-0.157 -0.059-0.161 -0.057-0.164 -0.056-0.167 -0.055-0.17 -0.053-0.174 -0.051-0.178 -0.05-0.181 -0.049-0.184 -0.046-0.188 -0.045-0.191 -0.043-0.195 -0.041-0.198 -0.039-0.202 -0.036-0.206 -0.035-0.209 -0.032-0.212 -0.031-0.217 -0.027-0.22 -0.025-0.223 -0.023-0.228 -0.011-0.124 -0.011-0.126 -0.01-0.129 -0.009-0.13 -0.009-0.133 -0.008-0.135 -0.008-0.137 -0.006-0.139 -0.006-0.14 -0.006-0.142 -0.004-0.144 -0.004-0.145 -0.004-0.147 -0.002-0.148 -0.002-0.149 -0.001-0.151 0-0.152 0.001-0.152 0.002-0.154 0.002-0.154 0.003-0.156 0.004-0.156 0.005-0.156 0.006-0.158 0.007-0.157 0.008-0.158 0.009-0.159 0.009-0.158 0.011-0.159 0.012-0.158 0.012-0.159 0.014-0.159 0.015-0.158 0.016-0.158 0.016-0.158 0.018-0.157 0.019-0.156 0.02-0.157 0.021-0.155 0.023-0.155 0.023-0.153 0.025-0.153 0.026-0.152 0.027-0.151 0.028-0.149 0.029-0.148 0.031-0.147 0.032-0.146 0.033-0.144 0.034-0.142 0.036-0.141 0.037-0.138 0.038-0.137 0.04-0.136 0.041-0.133 0.043-0.131 0.043-0.128 0.045-0.127 0.047-0.124 0.048-0.122 0.049-0.119 0.051-0.117 0.053-0.114 0.053-0.111 0.028 0.201Zm-0.03 3.802l-0.017 0.15 -0.016 0.151 -0.015 0.151 -0.014 0.152 -0.013 0.152 -0.012 0.152 -0.011 0.153 -0.011 0.152 -0.009 0.152 -0.008 0.153 -0.008 0.152 -0.006 0.152 -0.006 0.152 -0.005 0.15 -0.004 0.151 -0.003 0.15 -0.002 0.149 -0.002 0.148 -0.001 0.148 0 0.146 0.001 0.145 0.002 0.144 0.002 0.143 0.003 0.141 0.004 0.14 0.005 0.139 0.005 0.136 0.006 0.135 0.006 0.134 0.007 0.131 0.008 0.129 0.008 0.127 0.009 0.125 0.01 0.122 0.01 0.121 0.01 0.116 0.022 0.216 0.024 0.211 0.026 0.207 0.028 0.204 0.031 0.199 0.032 0.197 0.035 0.192 0.036 0.189 0.038 0.186 0.04 0.182 0.042 0.178 0.043 0.175 0.045 0.171 0.047 0.168 0.048 0.165 0.049 0.161 0.05 0.158 0.052 0.154 0.053 0.151 0.054 0.148 0.055 0.145 0.056 0.141 0.057 0.138 0.057 0.135 0.058 0.132 0.059 0.128 0.06 0.125 0.06 0.122 0.061 0.119 0.061 0.116 0.061 0.113 0.061 0.11 0.062 0.106 0.062 0.104 0.062 0.101 0.061 0.097 0.062 0.095 0.062 0.092 0.061 0.089 0.061 0.086 0.061 0.083 0.06 0.08 0.059 0.077 0.059 0.075 0.059 0.071 0.057 0.069 0.057 0.066 0.056 0.063 0.055 0.061 0.054 0.057 0.052 0.055 0.051 0.052 0.05 0.049 0.049 0.047 0.047 0.043 0.045 0.041 0.043 0.038 0.042 0.036 0.04 0.032 0.037 0.03 0.035 0.027 0.033 0.024 0.029 0.021 0.04 0.027 0.009 0.007 0.002 0 0.007 0.004 0.013 0.007 0.02 0.008 0.026 0.012 0.034 0.012 0.041 0.015 0.05 0.016 0.057 0.018 0.067 0.018 0.076 0.02 0.085 0.019 0.095 0.021 0.104 0.02 0.116 0.02 0.125 0.019 0.137 0.019 0.148 0.018 0.16 0.017 0.171 0.016 0.184 0.014 0.196 0.013 0.19 0.01 0.084-8.788 -0.032-0.005 -0.1-0.018 -0.099-0.019 -0.099-0.02 -0.097-0.02 -0.096-0.021 -0.096-0.022 -0.095-0.023 -0.094-0.023 -0.093-0.024 -0.093-0.025 -0.091-0.026 -0.091-0.027 -0.09-0.028 -0.089-0.028 -0.088-0.029 -0.088-0.03 -0.087-0.031 -0.086-0.032 -0.085-0.032 -0.084-0.034 -0.084-0.034 -0.083-0.035 -0.082-0.036 -0.081-0.037 -0.081-0.038 -0.079-0.039 -0.079-0.039 -0.078-0.041 -0.077-0.041 -0.076-0.043 -0.076-0.043 -0.075-0.044 -0.074-0.045 -0.073-0.046 -0.072-0.047 -0.071-0.048 -0.071-0.048 -0.069-0.05 -0.069-0.05 -0.068-0.052 -0.067-0.052 -0.067-0.053 -0.065-0.054 -0.064-0.055 -0.064-0.056 -0.062-0.056 -0.062-0.058 -0.061-0.058 -0.06-0.059 -0.059-0.06 -0.058-0.061 -0.058-0.061 -0.056-0.063 -0.056-0.063 -0.054-0.063 -0.054-0.065 -0.053-0.066 -0.052-0.066 -0.051-0.067 -0.05-0.067 -0.049-0.069 -0.049-0.069 -0.047-0.069 -0.047-0.071 -0.046-0.071 -0.045-0.072 -0.044-0.072 -0.043-0.073 -0.043-0.074 -0.041-0.075 -0.041-0.075 -0.04-0.076 -0.039-0.076 -0.039-0.077 -0.038-0.078 -0.037-0.078 -0.036-0.079 -0.004-0.009 -0.002 0.01Z" class="a"/><path d="M22.095 136.157c-7.214-2.354-12.423-9.896-11.977-20.091l10.679 0.045 0.032 1.451c-2.687 4.489-3.178 14.696 1.266 18.595Z" class="a"/><path d="M20.797 116.111l0.032 1.451 -0.063 0.106 -0.061 0.108 -0.061 0.111 -0.06 0.112 -0.06 0.114 -0.058 0.117 -0.058 0.118 -0.057 0.12 -0.055 0.122 -0.055 0.123 -0.054 0.125 -0.054 0.127 -0.052 0.129 -0.051 0.13 -0.051 0.132 -0.05 0.134 -0.048 0.135 -0.048 0.137 -0.047 0.138 -0.045 0.139 -0.045 0.141 -0.044 0.142 -0.043 0.144 -0.042 0.145 -0.041 0.146 -0.04 0.148 -0.039 0.148 -0.038 0.15 -0.037 0.151 -0.035 0.152 -0.035 0.153 -0.034 0.154 -0.033 0.155 -0.031 0.156 -0.031 0.157 -0.029 0.158 -0.029 0.159 -0.027 0.159 -0.026 0.161 -0.025 0.161 -0.024 0.162 -0.023 0.162 -0.022 0.163 -0.021 0.164 -0.019 0.164 -0.018 0.165 -0.017 0.166 -0.016 0.165 -0.015 0.167 -0.014 0.166 -0.012 0.167 -0.011 0.168 -0.01 0.168 -0.009 0.168 -0.007 0.168 -0.007 0.168 -0.005 0.169 -0.004 0.169 -0.002 0.168 -0.001 0.169 0 0.169 0.001 0.169 0.003 0.169 0.004 0.169 0.005 0.169 0.006 0.168 0.008 0.168 0.009 0.169 0.011 0.168 0.012 0.167 0.013 0.168 0.014 0.167 0.016 0.166 0.018 0.166 0.018 0.166 0.02 0.165 0.022 0.165 0.023 0.164 0.024 0.164 0.026 0.163 0.027 0.162 0.028 0.162 0.03 0.16 0.032 0.161 0.033 0.159 0.034 0.158 0.036 0.158 0.038 0.157 0.038 0.155 0.041 0.155 0.042 0.154 0.043 0.153 0.045 0.152 0.047 0.15 0.048 0.15 0.049 0.148 0.051 0.147 0.053 0.146 0.054 0.144 0.056 0.144 0.057 0.141 0.059 0.141 0.061 0.139 0.062 0.138 0.064 0.136 0.066 0.135 0.067 0.133 0.069 0.131 0.07 0.13 0.072 0.128 0.074 0.127 0.075 0.125 0.077 0.123 0.079 0.121 0.08 0.119 0.083 0.118 0.084 0.116 0.085 0.113 0.088 0.112 0.089 0.11 0.09 0.108 0.093 0.105 0.094 0.104 0.096 0.101 0.098 0.1 0.1 0.097 0.101 0.094 0.104 0.093 -0.169-0.056 -0.168-0.058 -0.167-0.06 -0.167-0.062 -0.165-0.064 -0.165-0.065 -0.164-0.067 -0.164-0.07 -0.162-0.071 -0.162-0.073 -0.16-0.074 -0.16-0.077 -0.159-0.078 -0.159-0.08 -0.157-0.082 -0.156-0.084 -0.156-0.086 -0.155-0.087 -0.153-0.089 -0.153-0.091 -0.152-0.092 -0.151-0.095 -0.15-0.096 -0.149-0.098 -0.148-0.099 -0.147-0.101 -0.146-0.103 -0.144-0.105 -0.144-0.106 -0.143-0.108 -0.142-0.11 -0.141-0.112 -0.14-0.113 -0.138-0.114 -0.138-0.117 -0.136-0.118 -0.135-0.12 -0.135-0.121 -0.133-0.123 -0.132-0.124 -0.13-0.127 -0.13-0.127 -0.128-0.13 -0.128-0.131 -0.126-0.132 -0.125-0.134 -0.123-0.136 -0.123-0.137 -0.121-0.139 -0.12-0.14 -0.118-0.142 -0.118-0.144 -0.116-0.145 -0.115-0.146 -0.113-0.148 -0.113-0.149 -0.111-0.151 -0.109-0.153 -0.108-0.154 -0.107-0.155 -0.106-0.157 -0.104-0.158 -0.103-0.16 -0.101-0.161 -0.1-0.163 -0.099-0.164 -0.097-0.165 -0.096-0.167 -0.094-0.168 -0.093-0.17 -0.091-0.171 -0.09-0.173 -0.088-0.174 -0.087-0.175 -0.086-0.176 -0.084-0.178 -0.082-0.18 -0.081-0.18 -0.079-0.182 -0.078-0.183 -0.076-0.185 -0.074-0.186 -0.073-0.187 -0.072-0.189 -0.069-0.19 -0.068-0.191 -0.067-0.192 -0.065-0.194 -0.063-0.195 -0.062-0.196 -0.059-0.197 -0.059-0.199 -0.056-0.2 -0.055-0.201 -0.053-0.202 -0.051-0.204 -0.05-0.205 -0.048-0.205 -0.046-0.208 -0.044-0.208 -0.043-0.209 -0.04-0.211 -0.039-0.212 -0.037-0.213 -0.036-0.214 -0.033-0.215 -0.032-0.217 -0.03-0.217 -0.028-0.219 -0.026-0.22 -0.024-0.22 -0.022-0.222 -0.02-0.223 -0.019-0.224 -0.016-0.226 -0.015-0.226 -0.013-0.227 -0.01-0.229 -0.009-0.229 -0.007-0.23 -0.005-0.232 -0.002-0.232 -0.001-0.234 0.001-0.234 0.003-0.236 0.006-0.236 0.007-0.238 0.009-0.238 10.679 0.045Zm-9.705 1.138l0 0.225 0.003 0.224 0.005 0.223 0.006 0.221 0.009 0.221 0.01 0.22 0.012 0.218 0.014 0.218 0.016 0.216 0.018 0.215 0.019 0.214 0.022 0.213 0.023 0.212 0.025 0.211 0.027 0.21 0.028 0.208 0.031 0.208 0.032 0.206 0.034 0.205 0.035 0.204 0.037 0.203 0.039 0.201 0.041 0.201 0.042 0.199 0.045 0.198 0.045 0.197 0.048 0.195 0.049 0.195 0.05 0.193 0.053 0.192 0.053 0.191 0.056 0.189 0.057 0.188 0.059 0.187 0.06 0.186 0.062 0.185 0.063 0.183 0.065 0.182 0.066 0.181 0.068 0.179 0.07 0.178 0.071 0.177 0.072 0.176 0.074 0.174 0.075 0.173 0.077 0.172 0.078 0.17 0.08 0.169 0.081 0.167 0.082 0.167 0.084 0.165 0.085 0.163 0.087 0.162 0.088 0.161 0.089 0.16 0.091 0.158 0.092 0.157 0.093 0.155 0.095 0.154 0.096 0.152 0.097 0.151 0.099 0.15 0.1 0.149 0.101 0.146 0.102 0.146 0.103 0.144 0.105 0.142 0.106 0.141 0.107 0.14 0.109 0.138 0.109 0.137 0.111 0.135 0.112 0.134 0.113 0.132 0.114 0.131 0.115 0.129 0.117 0.128 0.117 0.126 0.119 0.125 0.12 0.124 0.121 0.121 0.122 0.12 0.123 0.119 0.124 0.117 0.125 0.116 0.126 0.114 0.127 0.112 0.129 0.111 0.129 0.11 0.13 0.107 0.131 0.107 0.132 0.104 0.133 0.103 0.134 0.102 0.136 0.1 0.135 0.098 0.137 0.096 0.138 0.095 0.139 0.094 0.14 0.091 0.14 0.09 0.024 0.016 -0.009-0.021 -0.066-0.152 -0.064-0.152 -0.062-0.154 -0.061-0.155 -0.058-0.157 -0.057-0.157 -0.055-0.158 -0.054-0.16 -0.051-0.16 -0.05-0.162 -0.048-0.163 -0.047-0.163 -0.044-0.164 -0.043-0.165 -0.042-0.166 -0.04-0.167 -0.038-0.168 -0.036-0.168 -0.035-0.169 -0.034-0.169 -0.031-0.171 -0.031-0.17 -0.028-0.172 -0.028-0.172 -0.025-0.172 -0.024-0.173 -0.023-0.174 -0.021-0.174 -0.02-0.174 -0.018-0.175 -0.017-0.174 -0.015-0.176 -0.014-0.175 -0.012-0.176 -0.011-0.176 -0.01-0.176 -0.008-0.176 -0.007-0.177 -0.005-0.176 -0.004-0.177 -0.003-0.176 -0.001-0.177 0-0.176 0.001-0.177 0.003-0.176 0.004-0.176 0.005-0.176 0.006-0.176 0.008-0.176 0.009-0.175 0.011-0.175 0.011-0.175 0.013-0.174 0.014-0.174 0.016-0.174 0.017-0.173 0.017-0.172 0.019-0.173 0.021-0.171 0.021-0.171 0.023-0.171 0.024-0.169 0.025-0.17 0.026-0.168 0.028-0.168 0.028-0.167 0.03-0.166 0.031-0.165 0.032-0.165 0.033-0.163 0.034-0.163 0.036-0.162 0.036-0.161 0.038-0.159 0.039-0.159 0.04-0.158 0.041-0.157 0.042-0.155 0.043-0.155 0.044-0.153 0.046-0.152 0.046-0.151 0.048-0.149 0.049-0.149 0.049-0.146 0.051-0.146 0.052-0.145 0.053-0.142 0.054-0.142 0.056-0.14 0.056-0.138 0.057-0.137 0.059-0.136 0.059-0.133 0.061-0.132 0.062-0.131 0.063-0.129 0.064-0.127 0.065-0.126 0.066-0.124 0.058-0.105 -0.004-0.197 -8.726-0.037 -0.001 0.179Z" class="a"/></g><path d="M149.636 137.426l-121.69 0 0 0 0.268-0.002 0.042-10.663 -0.208-0.027 121.588 0 0 10.692Z" class="a"/><path d="M149.636 137.426l-121.69 0 0 0 0.268-0.002 0.042-10.663 -0.208-0.027 121.588 0 0 10.692Zm-120.384-9.692l-0.034 8.692 119.418 0 0-8.692 -119.384 0Z" class="a"/></g></g><path d="M84.309 0c11.943 0.192 20.401 9.269 20.65 22.009l-0.073 21.867 -10.244 0.912 0.147-8.874 0.036-11.866c0.17-9.087-4.155-14.677-12.028-14.681 -6.03-0.002-7.496 2.813-8.927 4.871 2.365-9.071 7.454-14.07 10.439-14.238Zm-4.018 0.108c-4.684 2.415-7.71 8.662-9.035 17.062 -0.682 1.937-1.083 4.117-1.101 6.996 -0.042 6.909-10.078 6.245-10.201-0.026 -0.287-14.686 10.515-22.616 20.337-24.032Z" class="a"/><path d="M84.449 0.003l0.14 0.003 0.139 0.004 0.139 0.006 0.138 0.005 0.138 0.007 0.138 0.008 0.138 0.008 0.137 0.009 0.137 0.01 0.136 0.011 0.136 0.011 0.136 0.012 0.136 0.013 0.135 0.014 0.135 0.015 0.134 0.015 0.134 0.017 0.134 0.017 0.133 0.017 0.133 0.019 0.133 0.019 0.133 0.02 0.132 0.021 0.131 0.022 0.131 0.022 0.131 0.023 0.131 0.024 0.13 0.025 0.13 0.025 0.129 0.026 0.129 0.027 0.129 0.028 0.128 0.029 0.128 0.029 0.128 0.03 0.127 0.03 0.127 0.032 0.126 0.032 0.126 0.033 0.126 0.034 0.125 0.034 0.125 0.035 0.125 0.036 0.124 0.037 0.123 0.037 0.124 0.038 0.123 0.039 0.122 0.039 0.122 0.041 0.122 0.04 0.121 0.042 0.121 0.043 0.12 0.043 0.12 0.043 0.12 0.045 0.119 0.045 0.119 0.046 0.119 0.047 0.118 0.047 0.117 0.048 0.117 0.049 0.117 0.049 0.116 0.051 0.116 0.05 0.116 0.052 0.115 0.052 0.114 0.053 0.114 0.054 0.114 0.054 0.113 0.055 0.113 0.055 0.112 0.057 0.112 0.057 0.112 0.057 0.111 0.059 0.111 0.059 0.11 0.059 0.109 0.061 0.11 0.061 0.108 0.062 0.109 0.062 0.108 0.063 0.107 0.064 0.107 0.064 0.107 0.065 0.106 0.065 0.105 0.067 0.105 0.067 0.105 0.067 0.104 0.068 0.104 0.069 0.103 0.07 0.103 0.07 0.102 0.071 0.102 0.071 0.101 0.072 0.101 0.073 0.1 0.073 0.1 0.074 0.099 0.075 0.099 0.075 0.099 0.076 0.098 0.076 0.097 0.077 0.097 0.078 0.096 0.078 0.096 0.079 0.096 0.08 0.094 0.08 0.095 0.081 0.094 0.081 0.093 0.082 0.093 0.082 0.092 0.083 0.092 0.084 0.091 0.085 0.091 0.085 0.09 0.085 0.09 0.086 0.089 0.087 0.089 0.087 0.088 0.088 0.088 0.089 0.087 0.089 0.087 0.089 0.086 0.09 0.085 0.091 0.085 0.092 0.085 0.092 0.084 0.092 0.083 0.093 0.083 0.094 0.082 0.094 0.082 0.095 0.081 0.095 0.081 0.096 0.08 0.096 0.08 0.097 0.079 0.098 0.078 0.098 0.078 0.099 0.077 0.099 0.077 0.1 0.076 0.1 0.076 0.101 0.075 0.101 0.075 0.102 0.074 0.103 0.073 0.103 0.073 0.103 0.072 0.104 0.072 0.105 0.071 0.105 0.07 0.105 0.07 0.107 0.069 0.106 0.069 0.107 0.068 0.108 0.068 0.108 0.067 0.109 0.066 0.109 0.066 0.11 0.065 0.111 0.065 0.11 0.064 0.112 0.063 0.111 0.063 0.113 0.062 0.113 0.062 0.113 0.061 0.114 0.06 0.114 0.06 0.115 0.059 0.115 0.059 0.116 0.058 0.116 0.057 0.117 0.057 0.117 0.056 0.118 0.055 0.118 0.055 0.118 0.055 0.12 0.053 0.119 0.053 0.12 0.052 0.121 0.052 0.121 0.051 0.121 0.051 0.122 0.049 0.123 0.05 0.123 0.048 0.123 0.048 0.124 0.047 0.124 0.047 0.125 0.046 0.125 0.045 0.125 0.045 0.126 0.044 0.127 0.043 0.127 0.043 0.127 0.042 0.128 0.041 0.128 0.041 0.129 0.04 0.129 0.039 0.13 0.039 0.13 0.038 0.13 0.037 0.131 0.037 0.131 0.036 0.132 0.035 0.132 0.035 0.132 0.034 0.133 0.033 0.134 0.033 0.133 0.032 0.135 0.031 0.134 0.031 0.135 0.03 0.136 0.029 0.135 0.029 0.137 0.028 0.136 0.027 0.137 0.026 0.138 0.026 0.137 0.025 0.139 0.024 0.138 0.024 0.139 0.023 0.14 0.022 0.139 0.022 0.141 0.02 0.14 0.021 0.141 0.019 0.141 0.019 0.142 0.018 0.142 0.017 0.142 0.016 0.143 0.016 0.143 0.015 0.144 0.015 0.144 0.013 0.144 0.013 0.144 0.012 0.145 0.012 0.146 0.011 0.145 0.009 0.146 0.01 0.147 0.008 0.147 0.008 0.147 0.007 0.147 0.006 0.148 0.006 0.148 0.005 0.148 0.004 0.149 0.003 0.149 -0.073 21.867 -10.244 0.912 0.147-8.874 0.036-11.866 0.003-0.212 0.001-0.211 0-0.21 -0.002-0.208 -0.003-0.207 -0.005-0.206 -0.007-0.205 -0.008-0.203 -0.01-0.202 -0.011-0.2 -0.013-0.2 -0.015-0.198 -0.017-0.196 -0.018-0.195 -0.019-0.194 -0.021-0.192 -0.023-0.191 -0.025-0.19 -0.026-0.188 -0.027-0.187 -0.029-0.186 -0.031-0.184 -0.033-0.182 -0.034-0.182 -0.035-0.179 -0.037-0.179 -0.039-0.177 -0.04-0.175 -0.042-0.174 -0.043-0.173 -0.045-0.171 -0.047-0.17 -0.048-0.168 -0.05-0.167 -0.051-0.165 -0.052-0.164 -0.055-0.162 -0.056-0.161 -0.057-0.159 -0.059-0.158 -0.06-0.156 -0.062-0.155 -0.064-0.153 -0.065-0.151 -0.067-0.15 -0.068-0.149 -0.069-0.147 -0.071-0.145 -0.073-0.144 -0.074-0.142 -0.076-0.141 -0.077-0.139 -0.079-0.138 -0.08-0.136 -0.082-0.134 -0.083-0.133 -0.085-0.131 -0.086-0.129 -0.087-0.128 -0.09-0.126 -0.09-0.125 -0.092-0.123 -0.094-0.121 -0.095-0.12 -0.097-0.118 -0.098-0.116 -0.099-0.114 -0.101-0.113 -0.103-0.112 -0.103-0.109 -0.106-0.108 -0.107-0.106 -0.108-0.104 -0.109-0.103 -0.112-0.101 -0.112-0.099 -0.114-0.098 -0.116-0.096 -0.117-0.094 -0.118-0.092 -0.12-0.091 -0.121-0.088 -0.122-0.087 -0.124-0.085 -0.126-0.084 -0.127-0.082 -0.128-0.079 -0.13-0.078 -0.131-0.077 -0.132-0.074 -0.134-0.073 -0.135-0.07 -0.137-0.069 -0.138-0.067 -0.14-0.066 -0.14-0.063 -0.143-0.062 -0.143-0.059 -0.145-0.058 -0.147-0.056 -0.148-0.054 -0.149-0.052 -0.15-0.051 -0.152-0.048 -0.153-0.047 -0.155-0.044 -0.156-0.043 -0.157-0.041 -0.159-0.039 -0.16-0.036 -0.161-0.035 -0.163-0.033 -0.164-0.032 -0.165-0.029 -0.167-0.027 -0.168-0.025 -0.17-0.023 -0.17-0.021 -0.172-0.02 -0.174-0.017 -0.175-0.015 -0.176-0.013 -0.177-0.012 -0.179-0.009 -0.179-0.007 -0.182-0.005 -0.182-0.003 -0.184-0.002 -0.141 0.001 -0.139 0.001 -0.137 0.003 -0.135 0.003 -0.134 0.005 -0.132 0.005 -0.131 0.007 -0.129 0.007 -0.128 0.008 -0.126 0.01 -0.124 0.01 -0.123 0.011 -0.122 0.012 -0.12 0.013 -0.118 0.014 -0.117 0.015 -0.116 0.015 -0.114 0.017 -0.112 0.017 -0.112 0.018 -0.109 0.019 -0.109 0.02 -0.107 0.02 -0.105 0.022 -0.105 0.022 -0.103 0.023 -0.101 0.023 -0.1 0.025 -0.099 0.025 -0.098 0.026 -0.096 0.027 -0.095 0.027 -0.094 0.028 -0.093 0.029 -0.091 0.029 -0.09 0.03 -0.089 0.031 -0.088 0.032 -0.087 0.032 -0.085 0.032 -0.084 0.034 -0.084 0.034 -0.082 0.034 -0.08 0.035 -0.08 0.036 -0.079 0.036 -0.077 0.037 -0.077 0.038 -0.076 0.038 -0.074 0.038 -0.073 0.039 -0.073 0.04 -0.071 0.04 -0.071 0.04 -0.069 0.041 -0.069 0.042 -0.067 0.041 -0.067 0.043 -0.066 0.043 -0.065 0.043 -0.064 0.044 -0.063 0.044 -0.062 0.044 -0.061 0.045 -0.061 0.045 -0.059 0.046 -0.059 0.046 -0.058 0.046 -0.057 0.047 -0.057 0.046 -0.11 0.095 -0.108 0.096 -0.105 0.097 -0.102 0.099 -0.099 0.099 -0.097 0.1 -0.095 0.1 -0.092 0.102 -0.09 0.102 -0.088 0.102 -0.086 0.103 -0.083 0.104 -0.082 0.103 -0.081 0.104 -0.078 0.104 -0.078 0.104 -0.076 0.104 -0.074 0.104 -0.073 0.103 -0.144 0.207 -0.14 0.204 -0.137 0.202 -0.136 0.199 -0.134 0.195 0.056-0.212 0.057-0.21 0.058-0.209 0.059-0.207 0.059-0.206 0.061-0.205 0.062-0.203 0.062-0.201 0.064-0.2 0.064-0.198 0.065-0.197 0.066-0.195 0.067-0.194 0.067-0.192 0.069-0.191 0.069-0.189 0.07-0.188 0.071-0.186 0.071-0.185 0.073-0.183 0.073-0.182 0.073-0.18 0.075-0.178 0.075-0.177 0.075-0.175 0.077-0.174 0.077-0.173 0.077-0.17 0.079-0.17 0.078-0.167 0.08-0.166 0.08-0.165 0.08-0.163 0.082-0.161 0.081-0.16 0.082-0.159 0.083-0.156 0.083-0.155 0.084-0.154 0.084-0.152 0.084-0.15 0.085-0.149 0.086-0.148 0.085-0.145 0.086-0.144 0.087-0.143 0.087-0.141 0.087-0.139 0.088-0.138 0.088-0.136 0.088-0.134 0.088-0.133 0.089-0.132 0.089-0.129 0.089-0.128 0.09-0.127 0.09-0.125 0.09-0.123 0.09-0.122 0.09-0.12 0.091-0.118 0.09-0.117 0.091-0.115 0.091-0.114 0.091-0.112 0.091-0.11 0.091-0.108 0.092-0.107 0.091-0.106 0.091-0.103 0.092-0.103 0.091-0.1 0.092-0.099 0.091-0.097 0.092-0.095 0.091-0.094 0.091-0.092 0.092-0.091 0.091-0.089 0.091-0.087 0.091-0.085 0.091-0.084 0.09-0.082 0.091-0.081 0.09-0.079 0.091-0.077 0.09-0.075 0.09-0.074 0.089-0.072 0.09-0.071 0.089-0.069 0.089-0.067 0.088-0.065 0.089-0.064 0.088-0.062 0.087-0.06 0.088-0.059 0.087-0.056 0.086-0.056 0.087-0.053 0.086-0.052 0.085-0.05 0.085-0.048 0.085-0.047 0.084-0.045 0.084-0.043 0.083-0.041 0.083-0.04 0.083-0.038 0.082-0.037 0.081-0.034 0.081-0.033 0.08-0.031 0.08-0.029 0.079-0.028 0.078-0.026 0.078-0.024 0.077-0.022 0.077-0.021 0.076-0.019 0.076-0.017 0.074-0.016 0.074-0.013 0.073-0.012 0.073-0.01 0.072-0.009 0.071-0.006 0.07-0.005 0.14 0.003Zm-0.13 0.999l-0.047 0.004 -0.049 0.006 -0.05 0.007 -0.052 0.008 -0.053 0.01 -0.055 0.011 -0.055 0.013 -0.057 0.014 -0.058 0.016 -0.06 0.017 -0.06 0.019 -0.062 0.02 -0.063 0.022 -0.063 0.023 -0.065 0.026 -0.066 0.026 -0.067 0.029 -0.068 0.03 -0.069 0.032 -0.069 0.033 -0.071 0.035 -0.071 0.037 -0.073 0.038 -0.072 0.04 -0.074 0.042 -0.075 0.044 -0.075 0.045 -0.076 0.047 -0.076 0.049 -0.077 0.05 -0.078 0.052 -0.078 0.054 -0.079 0.056 -0.079 0.057 -0.08 0.059 -0.081 0.061 -0.081 0.062 -0.081 0.064 -0.082 0.066 -0.082 0.067 -0.082 0.069 -0.083 0.071 -0.083 0.073 -0.084 0.074 -0.083 0.076 -0.085 0.077 -0.084 0.08 -0.084 0.081 -0.085 0.082 -0.085 0.085 -0.086 0.086 -0.085 0.087 -0.086 0.09 -0.085 0.091 -0.086 0.092 -0.086 0.095 -0.086 0.096 -0.086 0.097 -0.086 0.1 -0.086 0.101 -0.087 0.102 -0.086 0.105 -0.086 0.106 -0.086 0.107 -0.086 0.109 -0.086 0.111 -0.086 0.113 -0.086 0.114 -0.086 0.115 -0.086 0.118 -0.085 0.119 -0.085 0.12 -0.086 0.123 -0.085 0.123 -0.084 0.126 -0.085 0.127 -0.084 0.129 -0.084 0.13 -0.084 0.132 -0.084 0.133 -0.083 0.135 -0.083 0.137 -0.083 0.138 -0.082 0.14 -0.082 0.141 -0.082 0.143 -0.081 0.145 -0.081 0.146 -0.08 0.148 -0.08 0.149 -0.08 0.151 -0.079 0.153 -0.078 0.154 -0.079 0.155 -0.077 0.157 -0.077 0.159 -0.077 0.16 -0.076 0.162 -0.076 0.163 -0.075 0.165 -0.074 0.167 -0.074 0.168 -0.073 0.169 -0.006 0.015 0.005-0.003 0.075-0.049 0.076-0.048 0.077-0.048 0.078-0.047 0.079-0.047 0.08-0.046 0.081-0.046 0.082-0.044 0.084-0.045 0.084-0.043 0.086-0.043 0.086-0.043 0.088-0.041 0.089-0.041 0.09-0.041 0.091-0.039 0.092-0.039 0.094-0.038 0.094-0.038 0.096-0.036 0.096-0.036 0.098-0.035 0.1-0.034 0.1-0.034 0.101-0.033 0.103-0.032 0.104-0.031 0.105-0.03 0.107-0.029 0.107-0.029 0.109-0.028 0.11-0.026 0.111-0.026 0.113-0.025 0.114-0.025 0.115-0.023 0.116-0.022 0.118-0.022 0.119-0.02 0.12-0.02 0.122-0.019 0.123-0.017 0.125-0.017 0.125-0.016 0.128-0.015 0.128-0.014 0.13-0.012 0.132-0.012 0.132-0.011 0.135-0.01 0.135-0.009 0.138-0.008 0.138-0.007 0.141-0.005 0.141-0.005 0.143-0.004 0.145-0.003 0.146-0.001 0.149-0.001 0.194 0.002 0.194 0.003 0.193 0.005 0.191 0.008 0.191 0.01 0.189 0.012 0.188 0.014 0.186 0.016 0.186 0.019 0.184 0.02 0.183 0.023 0.182 0.025 0.18 0.027 0.18 0.029 0.178 0.032 0.176 0.033 0.176 0.036 0.174 0.038 0.173 0.039 0.172 0.043 0.171 0.044 0.169 0.046 0.168 0.048 0.166 0.051 0.165 0.053 0.164 0.054 0.163 0.057 0.161 0.059 0.159 0.061 0.159 0.063 0.157 0.066 0.155 0.067 0.155 0.069 0.152 0.072 0.152 0.073 0.15 0.076 0.148 0.078 0.147 0.079 0.146 0.082 0.144 0.084 0.142 0.086 0.141 0.087 0.14 0.09 0.138 0.092 0.136 0.094 0.135 0.096 0.133 0.097 0.132 0.1 0.13 0.101 0.129 0.104 0.127 0.105 0.126 0.107 0.123 0.11 0.123 0.111 0.12 0.113 0.119 0.114 0.117 0.117 0.116 0.119 0.114 0.12 0.112 0.122 0.111 0.124 0.109 0.125 0.108 0.128 0.105 0.128 0.104 0.131 0.102 0.133 0.101 0.134 0.099 0.136 0.097 0.138 0.096 0.139 0.094 0.141 0.092 0.142 0.09 0.144 0.089 0.146 0.087 0.148 0.085 0.149 0.084 0.15 0.081 0.152 0.081 0.154 0.078 0.155 0.077 0.157 0.075 0.159 0.073 0.159 0.072 0.162 0.07 0.163 0.068 0.164 0.066 0.166 0.065 0.167 0.063 0.168 0.061 0.171 0.06 0.171 0.058 0.173 0.056 0.175 0.054 0.176 0.053 0.177 0.051 0.178 0.05 0.181 0.047 0.181 0.046 0.183 0.044 0.184 0.043 0.186 0.041 0.186 0.039 0.189 0.037 0.189 0.036 0.191 0.034 0.193 0.033 0.193 0.03 0.195 0.029 0.196 0.028 0.198 0.025 0.199 0.024 0.2 0.022 0.201 0.021 0.203 0.019 0.203 0.017 0.206 0.015 0.206 0.014 0.208 0.012 0.209 0.01 0.21 0.009 0.212 0.007 0.212 0.005 0.214 0.003 0.215 0.002 0.217 0 0.217 -0.001 0.219 -0.003 0.21 -0.036 11.867 -0.129 7.769 8.229-0.732 0.07-20.942 -0.003-0.134 -0.004-0.144 -0.005-0.143 -0.005-0.143 -0.006-0.143 -0.007-0.142 -0.007-0.142 -0.008-0.142 -0.009-0.141 -0.01-0.141 -0.01-0.14 -0.011-0.141 -0.012-0.139 -0.013-0.14 -0.013-0.139 -0.014-0.138 -0.014-0.139 -0.015-0.138 -0.016-0.137 -0.017-0.137 -0.017-0.137 -0.018-0.136 -0.019-0.136 -0.019-0.136 -0.02-0.135 -0.021-0.135 -0.021-0.135 -0.022-0.134 -0.023-0.133 -0.024-0.134 -0.024-0.133 -0.024-0.132 -0.026-0.132 -0.026-0.132 -0.027-0.131 -0.027-0.131 -0.028-0.13 -0.029-0.13 -0.029-0.13 -0.03-0.129 -0.031-0.129 -0.031-0.129 -0.032-0.127 -0.033-0.128 -0.033-0.127 -0.034-0.127 -0.035-0.126 -0.035-0.126 -0.036-0.126 -0.036-0.125 -0.037-0.124 -0.038-0.125 -0.038-0.123 -0.039-0.124 -0.04-0.122 -0.04-0.123 -0.041-0.122 -0.042-0.121 -0.042-0.122 -0.043-0.12 -0.043-0.12 -0.044-0.12 -0.045-0.119 -0.045-0.119 -0.046-0.119 -0.046-0.118 -0.047-0.117 -0.047-0.117 -0.049-0.117 -0.049-0.116 -0.049-0.116 -0.05-0.115 -0.051-0.115 -0.051-0.114 -0.052-0.114 -0.052-0.113 -0.053-0.113 -0.054-0.112 -0.054-0.112 -0.054-0.112 -0.056-0.11 -0.056-0.111 -0.056-0.11 -0.057-0.109 -0.058-0.11 -0.058-0.108 -0.059-0.108 -0.059-0.108 -0.06-0.107 -0.06-0.106 -0.061-0.106 -0.062-0.106 -0.062-0.105 -0.063-0.105 -0.063-0.104 -0.064-0.104 -0.064-0.103 -0.065-0.102 -0.066-0.102 -0.066-0.102 -0.066-0.101 -0.067-0.101 -0.068-0.1 -0.068-0.099 -0.069-0.099 -0.069-0.099 -0.07-0.098 -0.07-0.097 -0.071-0.097 -0.072-0.097 -0.072-0.096 -0.072-0.095 -0.073-0.095 -0.074-0.094 -0.074-0.094 -0.074-0.093 -0.075-0.093 -0.076-0.092 -0.076-0.092 -0.077-0.091 -0.077-0.09 -0.078-0.09 -0.078-0.09 -0.079-0.089 -0.079-0.088 -0.079-0.088 -0.081-0.087 -0.081-0.087 -0.081-0.087 -0.082-0.085 -0.082-0.085 -0.082-0.085 -0.084-0.084 -0.083-0.083 -0.085-0.083 -0.084-0.082 -0.085-0.082 -0.086-0.081 -0.087-0.081 -0.086-0.08 -0.087-0.079 -0.088-0.079 -0.088-0.079 -0.089-0.077 -0.089-0.078 -0.089-0.076 -0.09-0.076 -0.091-0.076 -0.091-0.075 -0.091-0.074 -0.092-0.074 -0.092-0.073 -0.093-0.072 -0.094-0.072 -0.094-0.071 -0.094-0.071 -0.094-0.07 -0.096-0.07 -0.095-0.069 -0.096-0.068 -0.097-0.068 -0.097-0.067 -0.097-0.067 -0.098-0.065 -0.098-0.066 -0.099-0.065 -0.1-0.064 -0.099-0.063 -0.1-0.063 -0.101-0.062 -0.101-0.062 -0.102-0.061 -0.101-0.06 -0.103-0.06 -0.102-0.059 -0.104-0.059 -0.103-0.058 -0.105-0.057 -0.104-0.056 -0.105-0.056 -0.105-0.056 -0.106-0.055 -0.106-0.054 -0.107-0.053 -0.107-0.053 -0.108-0.052 -0.108-0.052 -0.108-0.05 -0.109-0.051 -0.109-0.049 -0.11-0.049 -0.11-0.048 -0.11-0.048 -0.111-0.047 -0.111-0.046 -0.112-0.046 -0.112-0.045 -0.112-0.044 -0.113-0.044 -0.114-0.043 -0.113-0.042 -0.114-0.042 -0.115-0.041 -0.115-0.04 -0.115-0.04 -0.116-0.039 -0.116-0.038 -0.116-0.037 -0.117-0.037 -0.118-0.037 -0.117-0.035 -0.118-0.035 -0.119-0.034 -0.119-0.034 -0.119-0.032 -0.119-0.032 -0.121-0.032 -0.12-0.03 -0.121-0.03 -0.121-0.029 -0.121-0.029 -0.122-0.028 -0.122-0.027 -0.123-0.026 -0.123-0.026 -0.123-0.025 -0.124-0.024 -0.124-0.024 -0.125-0.023 -0.125-0.022 -0.125-0.021 -0.126-0.021 -0.126-0.02 -0.126-0.019 -0.127-0.018 -0.127-0.018 -0.127-0.017 -0.128-0.016 -0.128-0.016 -0.128-0.014 -0.129-0.014 -0.129-0.013 -0.13-0.013 -0.13-0.012 -0.13-0.011 -0.13-0.01 -0.131-0.009 -0.132-0.009 -0.131-0.008 -0.132-0.007 -0.132-0.007 -0.133-0.005 -0.133-0.005 -0.133-0.004 -0.134-0.004 -0.093-0.001 -0.015 0.001Zm-4.137-0.836l-0.109 0.058 -0.109 0.06 -0.107 0.062 -0.107 0.063 -0.107 0.064 -0.106 0.066 -0.105 0.067 -0.104 0.068 -0.104 0.07 -0.104 0.071 -0.103 0.072 -0.102 0.074 -0.101 0.075 -0.101 0.076 -0.101 0.078 -0.1 0.079 -0.099 0.081 -0.098 0.081 -0.098 0.083 -0.097 0.085 -0.097 0.085 -0.096 0.087 -0.096 0.089 -0.095 0.089 -0.094 0.091 -0.094 0.092 -0.093 0.093 -0.092 0.095 -0.092 0.096 -0.091 0.097 -0.091 0.099 -0.09 0.099 -0.089 0.101 -0.089 0.102 -0.088 0.104 -0.087 0.104 -0.087 0.106 -0.087 0.107 -0.085 0.109 -0.085 0.109 -0.085 0.111 -0.084 0.112 -0.083 0.113 -0.083 0.114 -0.082 0.115 -0.081 0.117 -0.081 0.118 -0.08 0.119 -0.08 0.12 -0.079 0.122 -0.078 0.122 -0.078 0.124 -0.077 0.124 -0.076 0.126 -0.076 0.128 -0.076 0.128 -0.074 0.129 -0.074 0.131 -0.074 0.131 -0.073 0.133 -0.072 0.134 -0.071 0.135 -0.071 0.136 -0.071 0.137 -0.069 0.138 -0.07 0.139 -0.068 0.141 -0.068 0.141 -0.067 0.143 -0.067 0.143 -0.066 0.145 -0.065 0.146 -0.065 0.146 -0.064 0.148 -0.064 0.149 -0.063 0.15 -0.062 0.151 -0.062 0.152 -0.061 0.153 -0.061 0.154 -0.06 0.155 -0.059 0.156 -0.058 0.157 -0.059 0.158 -0.057 0.159 -0.057 0.16 -0.056 0.161 -0.055 0.162 -0.055 0.163 -0.055 0.164 -0.053 0.165 -0.054 0.166 -0.052 0.167 -0.052 0.167 -0.051 0.169 -0.051 0.17 -0.05 0.17 -0.049 0.172 -0.049 0.172 -0.048 0.174 -0.048 0.174 -0.046 0.175 -0.047 0.176 -0.045 0.177 -0.045 0.178 -0.045 0.179 -0.044 0.18 -0.043 0.181 -0.042 0.181 -0.042 0.182 -0.042 0.184 -0.04 0.184 -0.04 0.185 -0.04 0.185 -0.039 0.187 -0.038 0.188 -0.037 0.188 -0.037 0.189 -0.037 0.19 -0.035 0.191 -0.036 0.192 -0.034 0.192 -0.034 0.193 -0.066 0.389 -0.063 0.392 -0.063 0.183 -0.062 0.183 -0.059 0.186 -0.058 0.187 -0.057 0.189 -0.054 0.19 -0.053 0.193 -0.051 0.195 -0.049 0.196 -0.048 0.199 -0.046 0.201 -0.043 0.204 -0.042 0.206 -0.04 0.208 -0.038 0.211 -0.036 0.214 -0.035 0.216 -0.032 0.22 -0.03 0.222 -0.028 0.225 -0.027 0.228 -0.024 0.232 -0.022 0.235 -0.02 0.238 -0.018 0.241 -0.016 0.245 -0.014 0.249 -0.011 0.252 -0.01 0.256 -0.007 0.26 -0.005 0.264 -0.003 0.268 -0.001 0.08 -0.002 0.08 -0.002 0.08 -0.004 0.078 -0.005 0.078 -0.005 0.077 -0.006 0.077 -0.007 0.075 -0.008 0.076 -0.009 0.074 -0.01 0.074 -0.011 0.073 -0.011 0.072 -0.012 0.072 -0.013 0.071 -0.014 0.07 -0.015 0.07 -0.015 0.069 -0.016 0.068 -0.017 0.067 -0.018 0.067 -0.019 0.067 -0.019 0.065 -0.02 0.065 -0.021 0.064 -0.021 0.064 -0.022 0.063 -0.023 0.062 -0.024 0.061 -0.024 0.061 -0.025 0.06 -0.026 0.06 -0.027 0.058 -0.027 0.059 -0.028 0.057 -0.028 0.057 -0.029 0.056 -0.03 0.055 -0.031 0.055 -0.031 0.054 -0.031 0.054 -0.033 0.053 -0.033 0.052 -0.033 0.051 -0.034 0.051 -0.035 0.05 -0.036 0.05 -0.035 0.049 -0.037 0.048 -0.037 0.047 -0.038 0.047 -0.038 0.046 -0.039 0.046 -0.039 0.045 -0.04 0.044 -0.04 0.044 -0.041 0.042 -0.041 0.043 -0.042 0.041 -0.042 0.041 -0.043 0.041 -0.043 0.039 -0.044 0.039 -0.044 0.039 -0.045 0.037 -0.045 0.037 -0.046 0.037 -0.046 0.036 -0.046 0.035 -0.047 0.034 -0.048 0.034 -0.047 0.033 -0.048 0.033 -0.049 0.032 -0.098 0.061 -0.1 0.06 -0.101 0.057 -0.102 0.054 -0.104 0.052 -0.105 0.049 -0.107 0.046 -0.107 0.044 -0.109 0.042 -0.109 0.039 -0.111 0.037 -0.111 0.034 -0.113 0.031 -0.113 0.029 -0.114 0.027 -0.115 0.024 -0.115 0.021 -0.116 0.02 -0.116 0.016 -0.117 0.014 -0.117 0.012 -0.118 0.009 -0.118 0.007 -0.118 0.005 -0.118 0.002 -0.119-0.001 -0.118-0.002 -0.119-0.006 -0.119-0.007 -0.118-0.01 -0.118-0.013 -0.118-0.015 -0.118-0.017 -0.118-0.02 -0.117-0.022 -0.116-0.024 -0.116-0.027 -0.116-0.029 -0.115-0.031 -0.114-0.034 -0.114-0.036 -0.113-0.038 -0.112-0.041 -0.111-0.043 -0.11-0.046 -0.109-0.048 -0.108-0.05 -0.107-0.052 -0.106-0.055 -0.104-0.056 -0.103-0.06 -0.102-0.061 -0.101-0.064 -0.098-0.066 -0.098-0.068 -0.096-0.071 -0.094-0.073 -0.093-0.075 -0.09-0.077 -0.089-0.079 -0.087-0.082 -0.086-0.084 -0.083-0.086 -0.041-0.044 -0.04-0.045 -0.04-0.045 -0.039-0.045 -0.039-0.046 -0.038-0.047 -0.038-0.047 -0.037-0.048 -0.036-0.048 -0.036-0.049 -0.036-0.05 -0.034-0.05 -0.034-0.05 -0.034-0.051 -0.033-0.052 -0.032-0.052 -0.032-0.052 -0.031-0.054 -0.031-0.053 -0.03-0.055 -0.029-0.055 -0.028-0.055 -0.028-0.056 -0.027-0.056 -0.027-0.057 -0.026-0.058 -0.025-0.058 -0.024-0.058 -0.024-0.059 -0.023-0.06 -0.022-0.06 -0.022-0.061 -0.02-0.061 -0.02-0.062 -0.02-0.062 -0.018-0.063 -0.018-0.063 -0.017-0.064 -0.016-0.065 -0.016-0.065 -0.014-0.065 -0.014-0.066 -0.013-0.067 -0.012-0.067 -0.012-0.067 -0.01-0.068 -0.01-0.069 -0.009-0.069 -0.008-0.069 -0.007-0.071 -0.007-0.07 -0.005-0.071 -0.005-0.072 -0.003-0.072 -0.003-0.073 -0.002-0.073 -0.003-0.172 -0.002-0.171 -0.001-0.171 0.001-0.17 0.001-0.169 0.002-0.169 0.003-0.168 0.004-0.167 0.005-0.167 0.006-0.166 0.007-0.166 0.008-0.165 0.009-0.164 0.01-0.164 0.011-0.163 0.012-0.163 0.013-0.162 0.014-0.161 0.014-0.161 0.016-0.16 0.017-0.159 0.017-0.159 0.018-0.158 0.02-0.158 0.02-0.157 0.021-0.156 0.022-0.156 0.023-0.155 0.024-0.154 0.025-0.154 0.025-0.154 0.027-0.152 0.027-0.152 0.028-0.152 0.029-0.15 0.03-0.151 0.031-0.149 0.032-0.149 0.032-0.149 0.034-0.147 0.034-0.147 0.035-0.147 0.036-0.146 0.036-0.145 0.038-0.145 0.038-0.144 0.04-0.143 0.04-0.143 0.04-0.142 0.042-0.142 0.042-0.141 0.044-0.14 0.044-0.14 0.044-0.139 0.046-0.138 0.046-0.138 0.047-0.138 0.048-0.136 0.049-0.136 0.049-0.136 0.05-0.135 0.051-0.134 0.052-0.134 0.052-0.133 0.054-0.132 0.053-0.132 0.055-0.131 0.055-0.13 0.056-0.13 0.057-0.13 0.058-0.128 0.058-0.128 0.059-0.128 0.059-0.127 0.061-0.126 0.061-0.126 0.061-0.125 0.063-0.124 0.063-0.124 0.063-0.123 0.065-0.123 0.065-0.122 0.066-0.121 0.066-0.121 0.067-0.12 0.068-0.119 0.068-0.119 0.069-0.119 0.069-0.117 0.071-0.118 0.07-0.116 0.072-0.116 0.072-0.115 0.073-0.115 0.073-0.114 0.074-0.113 0.074-0.113 0.076-0.112 0.075-0.112 0.077-0.111 0.076-0.11 0.078-0.11 0.078-0.109 0.078-0.109 0.08-0.108 0.079-0.107 0.081-0.107 0.08-0.106 0.082-0.105 0.082-0.105 0.082-0.104 0.083-0.104 0.084-0.103 0.084-0.103 0.084-0.101 0.086-0.102 0.085-0.1 0.086-0.1 0.087-0.1 0.087-0.099 0.088-0.098 0.088-0.097 0.088-0.097 0.09-0.097 0.089-0.095 0.09-0.096 0.091-0.094 0.091-0.094 0.091-0.093 0.092-0.093 0.185-0.184 0.187-0.181 0.189-0.179 0.19-0.176 0.193-0.174 0.193-0.171 0.196-0.17 0.197-0.166 0.198-0.164 0.2-0.162 0.202-0.16 0.202-0.157 0.205-0.154 0.205-0.152 0.207-0.15 0.209-0.147 0.209-0.145 0.211-0.142 0.212-0.141 0.213-0.137 0.214-0.135 0.216-0.133 0.216-0.13 0.218-0.128 0.218-0.126 0.219-0.123 0.221-0.121 0.221-0.118 0.222-0.116 0.223-0.114 0.223-0.111 0.225-0.108 0.225-0.107 0.226-0.103 0.226-0.102 0.227-0.099 0.228-0.097 0.228-0.094 0.228-0.092 0.23-0.089 0.229-0.087 0.23-0.085 0.23-0.082 0.231-0.08 0.231-0.077 0.231-0.075 0.232-0.073 0.231-0.07 0.232-0.068 0.232-0.065 0.232-0.064 0.232-0.06 0.232-0.058 0.232-0.056 0.232-0.054 0.232-0.051 0.232-0.049 0.231-0.046 0.232-0.044 0.231-0.041 0.231-0.04 0.231-0.036 0.23-0.035 -0.109 0.058Zm-4.189 2.027l-0.221 0.079 -0.221 0.082 -0.22 0.083 -0.22 0.086 -0.22 0.088 -0.219 0.091 -0.218 0.093 -0.218 0.095 -0.218 0.097 -0.217 0.1 -0.216 0.102 -0.215 0.104 -0.215 0.107 -0.214 0.109 -0.213 0.111 -0.212 0.114 -0.212 0.115 -0.21 0.119 -0.21 0.12 -0.208 0.123 -0.208 0.125 -0.206 0.127 -0.206 0.13 -0.204 0.132 -0.203 0.134 -0.202 0.137 -0.201 0.138 -0.2 0.142 -0.198 0.143 -0.197 0.146 -0.196 0.148 -0.194 0.15 -0.193 0.153 -0.192 0.155 -0.19 0.157 -0.188 0.159 -0.187 0.162 -0.185 0.164 -0.184 0.166 -0.182 0.169 -0.181 0.171 -0.179 0.173 -0.178 0.177 -0.087 0.088 -0.087 0.089 -0.087 0.09 -0.087 0.09 -0.086 0.091 -0.085 0.091 -0.085 0.092 -0.085 0.093 -0.084 0.093 -0.084 0.094 -0.083 0.095 -0.083 0.094 -0.082 0.096 -0.082 0.096 -0.081 0.097 -0.081 0.097 -0.08 0.098 -0.08 0.098 -0.079 0.099 -0.079 0.1 -0.078 0.1 -0.078 0.101 -0.077 0.101 -0.077 0.102 -0.076 0.102 -0.075 0.103 -0.075 0.104 -0.075 0.104 -0.074 0.105 -0.073 0.105 -0.073 0.106 -0.072 0.107 -0.072 0.107 -0.071 0.107 -0.071 0.109 -0.069 0.108 -0.07 0.11 -0.069 0.11 -0.068 0.11 -0.067 0.111 -0.067 0.112 -0.067 0.113 -0.066 0.112 -0.065 0.114 -0.064 0.114 -0.064 0.115 -0.064 0.115 -0.062 0.116 -0.062 0.116 -0.062 0.117 -0.061 0.118 -0.06 0.118 -0.059 0.118 -0.059 0.12 -0.058 0.12 -0.058 0.12 -0.057 0.121 -0.056 0.122 -0.056 0.122 -0.054 0.123 -0.055 0.124 -0.053 0.124 -0.053 0.124 -0.052 0.126 -0.052 0.126 -0.05 0.126 -0.05 0.127 -0.05 0.128 -0.048 0.128 -0.048 0.129 -0.048 0.129 -0.046 0.13 -0.046 0.131 -0.045 0.131 -0.044 0.132 -0.044 0.132 -0.043 0.133 -0.042 0.134 -0.041 0.134 -0.041 0.135 -0.039 0.136 -0.039 0.136 -0.039 0.136 -0.037 0.138 -0.037 0.138 -0.036 0.138 -0.035 0.139 -0.034 0.14 -0.034 0.14 -0.033 0.141 -0.032 0.142 -0.031 0.142 -0.03 0.143 -0.03 0.143 -0.028 0.144 -0.028 0.145 -0.027 0.145 -0.027 0.146 -0.025 0.146 -0.025 0.147 -0.023 0.148 -0.023 0.149 -0.022 0.148 -0.021 0.15 -0.021 0.15 -0.019 0.151 -0.019 0.151 -0.017 0.153 -0.017 0.152 -0.016 0.153 -0.015 0.155 -0.014 0.154 -0.013 0.155 -0.013 0.156 -0.011 0.157 -0.011 0.157 -0.009 0.157 -0.009 0.159 -0.008 0.159 -0.006 0.159 -0.006 0.16 -0.005 0.161 -0.004 0.162 -0.003 0.162 -0.002 0.163 -0.001 0.163 -0.001 0.164 0.001 0.165 0.002 0.165 0.003 0.165 0.001 0.062 0.003 0.06 0.003 0.06 0.003 0.059 0.005 0.058 0.005 0.058 0.006 0.057 0.007 0.057 0.007 0.056 0.008 0.056 0.008 0.055 0.009 0.054 0.01 0.055 0.011 0.053 0.011 0.053 0.012 0.052 0.012 0.052 0.013 0.052 0.014 0.051 0.014 0.05 0.014 0.05 0.016 0.049 0.016 0.049 0.016 0.049 0.017 0.048 0.018 0.048 0.018 0.047 0.019 0.046 0.019 0.046 0.02 0.046 0.02 0.045 0.021 0.045 0.021 0.044 0.022 0.044 0.022 0.044 0.023 0.043 0.023 0.042 0.024 0.042 0.025 0.042 0.025 0.041 0.025 0.041 0.026 0.041 0.026 0.04 0.027 0.039 0.027 0.04 0.028 0.038 0.029 0.039 0.028 0.038 0.029 0.037 0.03 0.038 0.03 0.036 0.031 0.037 0.031 0.036 0.031 0.035 0.032 0.035 0.03 0.033 0.068 0.07 0.068 0.067 0.069 0.065 0.071 0.063 0.073 0.062 0.074 0.06 0.075 0.059 0.077 0.056 0.079 0.056 0.08 0.053 0.081 0.052 0.083 0.049 0.084 0.049 0.085 0.046 0.087 0.045 0.087 0.043 0.089 0.041 0.089 0.039 0.091 0.037 0.091 0.036 0.093 0.033 0.093 0.032 0.094 0.03 0.095 0.028 0.095 0.026 0.096 0.024 0.096 0.022 0.097 0.02 0.097 0.019 0.098 0.016 0.098 0.014 0.098 0.013 0.098 0.01 0.098 0.008 0.098 0.007 0.099 0.004 0.098 0.002 0.098 0.001 0.098-0.002 0.097-0.004 0.098-0.005 0.096-0.008 0.097-0.01 0.096-0.011 0.095-0.014 0.095-0.015 0.094-0.018 0.093-0.02 0.092-0.021 0.092-0.024 0.09-0.025 0.09-0.028 0.089-0.029 0.088-0.031 0.086-0.033 0.086-0.035 0.084-0.037 0.083-0.039 0.082-0.041 0.08-0.043 0.08-0.044 0.077-0.046 0.08-0.05 0.035-0.023 0.037-0.025 0.037-0.026 0.037-0.026 0.036-0.027 0.036-0.027 0.035-0.028 0.035-0.028 0.035-0.028 0.035-0.029 0.034-0.03 0.033-0.03 0.034-0.03 0.032-0.031 0.033-0.032 0.032-0.032 0.032-0.032 0.031-0.033 0.031-0.033 0.03-0.034 0.03-0.034 0.03-0.035 0.029-0.035 0.029-0.036 0.028-0.037 0.028-0.037 0.028-0.037 0.027-0.038 0.027-0.039 0.026-0.039 0.026-0.04 0.025-0.039 0.025-0.041 0.025-0.042 0.024-0.042 0.023-0.042 0.023-0.043 0.023-0.044 0.022-0.044 0.022-0.045 0.021-0.046 0.021-0.045 0.02-0.047 0.02-0.048 0.019-0.048 0.019-0.048 0.018-0.049 0.018-0.05 0.017-0.051 0.017-0.052 0.016-0.051 0.015-0.053 0.015-0.054 0.015-0.054 0.013-0.055 0.014-0.055 0.012-0.056 0.012-0.057 0.011-0.058 0.011-0.058 0.01-0.06 0.01-0.06 0.008-0.06 0.008-0.061 0.008-0.063 0.007-0.063 0.006-0.063 0.005-0.065 0.005-0.065 0.003-0.066 0.004-0.067 0.002-0.068 0.001-0.068 0.001-0.074 0.003-0.272 0.005-0.272 0.008-0.269 0.01-0.265 0.012-0.262 0.014-0.258 0.016-0.254 0.019-0.251 0.021-0.248 0.023-0.245 0.025-0.242 0.028-0.238 0.029-0.236 0.032-0.233 0.034-0.23 0.036-0.227 0.038-0.224 0.04-0.222 0.042-0.219 0.044-0.217 0.046-0.214 0.048-0.212 0.05-0.21 0.052-0.208 0.054-0.205 0.056-0.204 0.057-0.201 0.06-0.199 0.061-0.198 0.063-0.196 0.065-0.193 0.037-0.106 0.05-0.31 0.067-0.395 0.034-0.198 0.035-0.197 0.036-0.195 0.037-0.195 0.037-0.194 0.038-0.193 0.038-0.192 0.039-0.192 0.04-0.19 0.04-0.19 0.041-0.189 0.041-0.188 0.043-0.188 0.043-0.186 0.043-0.186 0.044-0.185 0.045-0.184 0.046-0.183 0.046-0.182 0.047-0.181 0.047-0.181 0.048-0.18 0.049-0.178 0.049-0.178 0.05-0.177 0.051-0.176 0.051-0.176 0.052-0.174 0.053-0.173 0.053-0.173 0.054-0.172 0.055-0.17 0.055-0.17 0.056-0.169 0.057-0.168 0.057-0.167 0.058-0.166 0.059-0.165 0.059-0.164 0.06-0.163 0.06-0.162 0.062-0.162 0.062-0.16 0.062-0.159 0.063-0.159 0.064-0.157 0.065-0.156 0.065-0.156 0.066-0.154 0.067-0.154 0.067-0.152 0.068-0.151 0.069-0.151 0.069-0.149 0.07-0.149 0.071-0.147 0.071-0.146 0.072-0.145 0.073-0.145 0.074-0.143 0.074-0.142 0.075-0.141 0.075-0.14 0.076-0.139 0.077-0.138 0.078-0.137 0.078-0.135 0.079-0.135 0.08-0.134 0.08-0.132 0.082-0.131 0.081-0.13 0.083-0.13 0.083-0.128 0.084-0.126 0.085-0.126 0.085-0.125 0.087-0.123 0.087-0.123 0.087-0.121 0.088-0.12 0.089-0.118 0.09-0.118 0.091-0.117 0.091-0.115 0.092-0.114 0.093-0.113 0.093-0.112 0.094-0.11 0.095-0.109 0.021-0.024 -0.186 0.064Z" class="a"/><path d="M17.913 98.559l8.659 8.694 57.039-44.689 6.914 7.767 -0.47-21.726 -19.726-0.229 6.255 6.754 -58.671 43.429Z" class="a"/></g></g></g></g></svg>
